<svg width="665" height="144" viewBox="0 0 665 144" fill="none" xmlns="http://www.w3.org/2000/svg">
<g clip-path="url(#clip0_7143_79)">
<path opacity="0.6" d="M55.3424 70.9366C55.3424 70.9366 61.7163 70.8923 64.905 70.9057C67.3721 70.9143 69.8399 70.9624 72.308 71.0303C72.9838 71.0482 73.3723 71.383 73.27 72.174C73.0344 73.9559 72.8995 75.7507 72.6369 77.5282C72.3913 79.2006 71.8143 79.5804 70.0071 79.3549C68.7498 79.198 67.4945 79.306 66.2398 79.3073C65.5142 79.307 65.2258 79.6066 65.1438 80.3327C64.7396 83.9089 64.555 87.5158 63.8176 91.0448C62.6938 96.4251 61.4774 101.783 58.9976 106.755C57.9106 108.933 56.72 111.036 55.012 112.907C55.3383 111.69 55.6836 110.474 55.9889 109.251C57.3765 103.663 57.7586 97.9856 57.6609 92.2414C57.5535 85.935 56.8933 79.6971 55.6939 73.5087C55.5045 72.5452 55.3424 70.9366 55.3424 70.9366Z" fill="#E8F0FF"/>
<path d="M59.5386 119.917C60.4857 119.437 61.4495 118.989 62.3755 118.473C66.737 116.03 70.4214 112.703 74.0874 109.37C77.1478 106.588 80.0119 103.603 82.7652 100.507C86.037 96.8305 88.7287 92.7366 91.4464 88.6609C93.0872 86.2008 94.5414 83.6289 95.814 80.9576C96.1084 80.3418 96.4038 80.3309 96.9652 80.6501C101.883 83.4584 106.721 86.3834 111.477 89.4605C117.366 93.2743 123.061 97.3683 128.848 101.329C129.92 102.064 130.851 103.008 131.931 103.731C132.88 104.367 132.915 105.012 132.302 105.852C131 107.635 129.755 109.459 128.398 111.196C121.135 120.491 110.566 130.2 98.7754 133.106C94.7249 134.104 90.5773 134.217 86.4355 133.666C85.0501 133.484 83.6045 133.546 82.0168 132.89C83.5615 132.227 84.9747 132.285 86.3052 132.012C95.7937 130.074 104.143 125.805 111.513 119.64C115.247 116.515 118.407 112.805 121.172 108.773C121.804 107.854 121.247 107.466 120.65 107.039C118.237 105.306 115.816 103.581 113.385 101.874C110.071 99.5465 106.734 97.2544 103.436 94.9083C102.703 94.3885 101.892 94.0164 101.182 93.4436C99.8404 92.3614 99.689 92.3911 98.6545 93.7958C96.5982 96.589 94.4276 99.284 92.0107 101.775C84.9999 109.004 77.1332 114.976 67.534 118.398C64.9809 119.308 62.3385 119.807 59.5405 119.921L59.5386 119.917Z" fill="#E8F0FF"/>
<path opacity="0.8" d="M59.289 115.177C61.2477 113.052 62.8553 110.842 64.4083 108.583C66.5984 105.396 68.4739 102.028 70.2352 98.5935C73.2447 92.7257 75.6227 86.5902 77.1735 80.1938C78.5523 74.5008 79.2952 62.4371 79.4493 59.7093C79.4652 59.4277 79.7413 59.2444 80.0076 59.3373C81.9847 60.0278 88.9109 62.4534 90.3531 63.0529C92.762 64.0556 95.1915 65.0131 97.5814 66.0444C99.8379 67.0175 102.051 68.1223 104.299 69.1381C106.84 70.286 109.289 71.6227 111.894 72.6386C113.147 73.1262 114.331 73.7893 115.539 74.3803C116.263 74.7345 116.486 75.2022 116.116 76.0171C115.154 78.1499 114.272 80.3183 113.357 82.4723C112.974 83.3766 112.528 83.8561 111.414 83.268C103.961 79.3164 96.1829 74.614 88.2161 71.8996C87.3977 71.7421 86.989 71.7873 86.8109 72.7353C86.2836 75.564 86.0591 78.4486 85.1507 81.209C83.4038 86.532 81.1205 91.5791 78.0604 96.3027C74.6316 101.594 70.4546 106.193 65.8245 110.425C64.1339 111.969 62.3781 113.431 60.5713 114.831C60.2655 115.07 59.9849 115.414 59.2883 115.179L59.289 115.177Z" fill="#E8F0FF"/>
<path d="M123.871 25.3293C114.913 14.7735 103.026 7.11116 89.7126 3.31126C76.3996 -0.488629 62.2587 -0.255421 49.0783 3.9814C35.8978 8.21822 24.2697 16.2684 15.6644 27.1138C7.05905 37.9593 1.86304 51.113 0.733402 64.9115C-0.396236 78.71 2.59123 92.5337 9.31802 104.634C16.0448 116.735 26.2088 126.569 38.5247 132.893C50.8406 139.217 64.7552 141.747 78.509 140.163C92.2628 138.579 105.238 132.952 115.794 123.994L101.762 107.46C94.476 113.643 85.5206 117.526 76.0278 118.62C66.535 119.713 56.9311 117.967 48.4308 113.602C39.9304 109.237 32.9152 102.449 28.2724 94.0975C23.6296 85.7457 21.5677 76.2047 22.3473 66.681C23.127 57.1573 26.7133 48.0786 32.6526 40.5931C38.592 33.1076 46.6177 27.5515 55.7148 24.6272C64.8119 21.703 74.5719 21.542 83.7605 24.1647C92.9491 26.7874 101.154 32.0759 107.337 39.3615L123.871 25.3293Z" fill="#E8F0FF"/>
<path d="M194.765 100.409C194.456 100.416 194.145 100.422 193.831 100.426L192.882 100.431C193.201 100.431 193.517 100.428 193.831 100.425L194.765 100.409ZM597.447 99.9375C597.145 99.9552 596.842 99.9711 596.538 99.9844L595.625 100.018C595.929 100.009 596.233 99.9976 596.537 99.9844L597.447 99.9375ZM192.882 45.5117C195.404 45.5117 197.754 45.6256 199.932 45.8535L199.933 45.8545C202.138 46.0827 204.225 46.4239 206.192 46.8779L206.204 46.8809C208.183 47.3121 210.096 47.8319 211.944 48.4395C213.594 48.9818 215.233 49.5869 216.863 50.25V60.8311C215.828 60.2922 214.757 59.7577 213.652 59.2314C211.983 58.4111 210.152 57.6873 208.16 57.0576C206.148 56.3957 203.948 55.8693 201.562 55.4756C199.148 55.0511 196.446 54.8418 193.462 54.8418C189.176 54.8418 185.515 55.2544 182.505 56.1035L181.912 56.2793L181.909 56.2803C178.853 57.2371 176.347 58.5312 174.437 60.1924C172.543 61.8386 171.187 63.755 170.401 65.9414L170.263 66.3359C169.593 68.3105 169.259 70.357 169.259 72.4707C169.259 73.962 169.421 75.4403 169.746 76.9033L169.747 76.9072C170.079 78.3752 170.633 79.7723 171.405 81.0957L171.41 81.1035C172.189 82.4116 173.199 83.6116 174.428 84.7041L174.912 85.1143C176.072 86.0522 177.447 86.8595 179.026 87.543C180.835 88.3257 182.919 88.9369 185.269 89.3857L185.281 89.3887C187.673 89.8138 190.402 90.0225 193.462 90.0225C196.44 90.0225 199.135 89.84 201.542 89.4697L201.552 89.4678C203.937 89.0745 206.137 88.5618 208.148 87.9268C210.146 87.296 211.982 86.5839 213.653 85.7881L214.88 85.1748C215.555 84.8317 216.215 84.4838 216.863 84.1357V94.6904C215.233 95.3536 213.594 95.9605 211.944 96.5029C210.327 97.0346 208.66 97.4988 206.942 97.8955L206.204 98.0615L206.192 98.0645C204.471 98.4617 202.659 98.7726 200.755 98.9971L199.932 99.0879C197.754 99.3158 195.404 99.4307 192.882 99.4307C187.539 99.4307 182.635 98.8586 178.163 97.7217C173.728 96.5876 169.927 94.8951 166.742 92.6572C163.788 90.5407 161.452 87.9515 159.725 84.8848L159.388 84.2646C157.645 80.9254 156.757 77.0037 156.757 72.4707C156.757 67.9365 157.646 64.0281 159.388 60.7158L159.389 60.7139C161.145 57.3503 163.591 54.5572 166.737 52.3271L166.739 52.3262C169.925 50.0617 173.727 48.3551 178.163 47.2207L178.162 47.2197C182.634 46.0829 187.539 45.5117 192.882 45.5117ZM263.961 45.5117C269.432 45.5117 274.33 46.11 278.663 47.2939L278.67 47.2949C283.028 48.4537 286.696 50.1698 289.695 52.4258C292.687 54.6757 294.981 57.4764 296.587 60.8369L296.588 60.8389C298.188 64.1615 299.003 68.0308 299.003 72.4707C299.003 76.9095 298.188 80.7921 296.588 84.1416C294.982 87.4763 292.688 90.2646 289.695 92.5156C286.695 94.7722 283.026 96.5011 278.668 97.6855C274.333 98.8448 269.434 99.4306 263.961 99.4307C258.491 99.4307 253.566 98.8456 249.18 97.6865C244.82 96.502 241.135 94.7726 238.106 92.5137C235.088 90.2621 232.769 87.473 231.139 84.1387C229.514 80.7899 228.687 76.9085 228.687 72.4707C228.687 68.033 229.513 64.166 231.137 60.8447L231.139 60.8418C232.77 57.4809 235.089 54.6796 238.106 52.4287C241.133 50.171 244.816 48.4538 249.174 47.2949L249.178 47.2939C253.564 46.1091 258.49 45.5117 263.961 45.5117ZM604.157 45.8984C608.562 45.8984 612.608 46.267 616.299 47L616.305 47.002C619.984 47.7077 623.112 48.8097 625.704 50.291L625.707 50.293C628.315 51.769 630.316 53.6209 631.739 55.8408L631.743 55.8467C633.168 58.0318 633.901 60.6584 633.901 63.7695V98H621.554V92.0889L620.072 92.9023C618.512 93.7592 616.843 94.5326 615.063 95.2197L614.294 95.5088L614.29 95.5098C612.241 96.2686 610.101 96.9147 607.869 97.4473C605.922 97.9119 603.915 98.2703 601.848 98.5225L600.957 98.624L600.946 98.626C598.588 98.9049 596.203 99.0439 593.793 99.0439C590.995 99.0439 588.291 98.7794 585.679 98.252C583.117 97.7297 580.864 96.8892 578.908 95.7402C576.98 94.6071 575.434 93.1325 574.259 91.3115C573.143 89.5444 572.557 87.3417 572.557 84.6523C572.557 81.2612 573.479 78.5202 575.267 76.3564L575.27 76.3525C577.083 74.1337 579.903 72.2583 583.821 70.7764C587.748 69.2911 592.747 68.1324 598.838 67.3135L598.837 67.3125C604.966 66.4919 612.222 65.8498 620.609 65.3867L621.554 65.335V63.2676C621.554 62.3391 621.338 61.4363 620.925 60.5674L620.735 60.1973C620.218 59.2266 619.362 58.4312 618.258 57.7793L617.768 57.5078C616.429 56.772 614.646 56.2082 612.467 55.7881C610.266 55.359 607.49 55.1514 604.157 55.1514C601.52 55.1514 598.908 55.295 596.321 55.582L595.366 55.6846C593.464 55.8997 591.605 56.1739 589.788 56.5068L588.883 56.6787H588.881C586.508 57.1481 584.248 57.6964 582.104 58.3242C580.504 58.7923 579.011 59.2765 577.623 59.7764V49.2383C579.212 48.846 580.965 48.4592 582.886 48.084C585.106 47.6502 587.417 47.2794 589.82 46.9727L589.831 46.9717C592.233 46.6395 594.661 46.384 597.114 46.2051L597.124 46.2041C599.574 45.9999 601.919 45.8984 604.157 45.8984ZM563.204 99H563.203V85.0781H563.204V99ZM405.616 99H405.615V45.8652H405.616V99ZM217.864 95.3652C216.008 96.1386 214.139 96.8344 212.257 97.4531C211.615 97.664 210.966 97.8628 210.31 98.0527C210.725 97.9324 211.138 97.8093 211.548 97.6807L212.256 97.4531C214.138 96.8344 216.007 96.1386 217.863 95.3652V82.4482H217.864V95.3652ZM346.719 46.8652C349.588 46.8653 352.337 47.0552 354.968 47.4346L354.977 47.4355C357.596 47.7881 360.028 48.3664 362.277 49.166L362.28 49.167C364.542 49.9625 366.585 51.0161 368.411 52.3242L368.418 52.3291C370.223 53.5978 371.763 55.1725 373.037 57.0596L373.041 57.0654L373.046 57.0713C374.34 58.9275 375.354 61.1182 376.075 63.6562C376.792 66.1789 377.158 69.088 377.158 72.3936C377.158 75.7244 376.793 78.6591 376.075 81.208C375.399 83.5876 374.466 85.6619 373.285 87.4414L373.046 87.793L373.041 87.8008C371.845 89.5483 370.415 91.0445 368.748 92.2939L368.411 92.541L368.406 92.5449C366.606 93.8519 364.59 94.9044 362.354 95.6992C360.384 96.3998 358.273 96.94 356.02 97.3174L355.045 97.4688C352.414 97.8225 349.665 98 346.796 98H314.074V46.8652H346.719ZM404.615 46.8652V98H392.269V46.8652H404.615ZM477.59 46.8652V56.1953H447.381C446.106 56.1953 444.92 56.2323 443.825 56.3066L442.761 56.3936H442.759C441.347 56.532 440.094 56.8688 439.025 57.4326C437.907 58.0227 437.054 58.9114 436.476 60.0645C435.884 61.2172 435.631 62.7119 435.631 64.4658V67.4385H475.694V76.7695H435.631V98H423.283V63.2676C423.283 60.6356 423.667 58.3088 424.416 56.2744L424.417 56.2754C425.174 54.2894 426.424 52.6202 428.191 51.2588L428.198 51.2539C429.964 49.8703 432.348 48.7855 435.399 48.0352L435.407 48.0332C438.445 47.2613 442.275 46.8652 446.917 46.8652H477.59ZM504.234 46.8652V98H491.887V46.8652H504.234ZM535.249 46.8652V98H522.902V46.8652H535.249ZM562.203 86.0781V98H549.547V86.0781H562.203ZM664.646 46.8652V98H652.298V46.8652H664.646ZM618.435 94.8613C617.224 95.4352 615.959 95.964 614.638 96.4473C613.143 97.0008 611.602 97.494 610.015 97.9287C611.601 97.4939 613.142 97.0007 614.637 96.4473C615.694 96.0606 616.715 95.6448 617.701 95.2002L618.435 94.8613ZM579.164 97.0273C579.225 97.0594 579.286 97.0905 579.347 97.1221C579.294 97.095 579.242 97.0685 579.189 97.041L579.164 97.0273ZM365.609 95.4023C364.678 95.8668 363.705 96.2797 362.69 96.6406C362.463 96.7214 362.233 96.7985 362.003 96.875L362.689 96.6406C363.559 96.3313 364.399 95.9841 365.207 95.5986L365.609 95.4023ZM368.277 93.8535C367.672 94.2594 367.046 94.6392 366.397 94.9922L366.006 95.2002C366.662 94.8579 367.297 94.4889 367.911 94.0938L368.277 93.8535ZM371.643 91.082C371.135 91.6016 370.6 92.0921 370.037 92.5537L369.695 92.8271C370.27 92.3769 370.816 91.8978 371.335 91.3896L371.643 91.082ZM573.89 92.541C573.909 92.5679 573.929 92.5943 573.949 92.6211C573.935 92.6015 573.92 92.5822 573.905 92.5625L573.89 92.541ZM263.961 54.9199C261.028 54.9199 258.42 55.1545 256.146 55.6348L255.312 55.8135C253.397 56.2507 251.693 56.8356 250.21 57.5771C248.535 58.4146 247.105 59.4124 245.937 60.5791L245.516 61.0059C244.556 62.0135 243.769 63.1026 243.158 64.2744C242.472 65.5665 241.976 66.9287 241.674 68.3584L241.673 68.3652L241.671 68.373C241.401 69.7486 241.266 71.1148 241.266 72.4707C241.266 73.8513 241.401 75.2431 241.67 76.6436L241.674 76.6611C241.977 78.092 242.472 79.4668 243.157 80.7832L243.162 80.791C243.86 82.1025 244.788 83.3188 245.937 84.4404C247.105 85.5814 248.535 86.566 250.21 87.4033L250.222 87.4092C251.909 88.2255 253.884 88.8671 256.135 89.3438L256.146 89.3457C258.418 89.8 261.026 90.0225 263.961 90.0225C268.332 90.0224 271.999 89.5262 274.927 88.4961C277.805 87.4835 280.135 86.1435 281.865 84.4434C283.595 82.7689 284.81 80.8647 285.484 78.7344L285.485 78.7354C286.161 76.6556 286.501 74.566 286.501 72.4707C286.501 70.3756 286.16 68.2981 285.483 66.2422C284.852 64.2244 283.745 62.4145 282.185 60.8164L281.865 60.499C280.135 58.7988 277.805 57.4579 274.927 56.4453C271.999 55.4153 268.332 54.92 263.961 54.9199ZM620.517 73.7539C615.678 73.9348 611.464 74.1852 607.877 74.5059L606.377 74.6475C602.517 75.0361 599.285 75.4912 596.688 76.0156C594.432 76.4716 592.558 76.9638 591.086 77.499L590.479 77.7314L590.474 77.7334C588.986 78.3443 587.793 78.9987 586.955 79.7168C586.152 80.4053 585.547 81.1788 585.292 82.0527L585.286 82.0713L585.282 82.0898C585.112 82.77 585.02 83.4202 585.02 84.0342C585.02 84.8423 585.241 85.6162 585.652 86.3438L585.657 86.3516L585.662 86.3604C586.122 87.1389 586.871 87.7529 587.794 88.2432L587.805 88.249C588.773 88.7479 589.998 89.1188 591.445 89.3867C592.919 89.6596 594.738 89.791 596.887 89.791C599.284 89.791 601.632 89.6059 603.929 89.2363C606.214 88.8686 608.387 88.3688 610.445 87.7354L610.456 87.7324C612.508 87.0747 614.435 86.3095 616.233 85.4365L616.239 85.4336C618.057 84.5379 619.688 83.5841 621.129 82.5703L621.554 82.2715V73.7148L620.517 73.7539ZM264.754 89.0166C264.493 89.0204 264.228 89.0225 263.961 89.0225C264.228 89.0225 264.493 89.0204 264.754 89.0166ZM192.347 89.0127C192.018 89.0069 191.693 88.9973 191.373 88.9863C191.693 88.9973 192.018 89.0069 192.347 89.0127ZM266.268 88.9717C266.127 88.978 265.985 88.9832 265.843 88.9883C265.985 88.9832 266.127 88.978 266.268 88.9717ZM261.803 88.9775C261.505 88.9652 261.212 88.9503 260.923 88.9326C261.212 88.9503 261.505 88.9652 261.803 88.9775ZM190.851 88.9648C190.684 88.9575 190.519 88.9502 190.354 88.9414C190.519 88.9502 190.684 88.9575 190.851 88.9648ZM266.932 88.9365C266.79 88.945 266.648 88.9518 266.505 88.959C266.648 88.9518 266.79 88.945 266.932 88.9365ZM198.625 88.8115C197.988 88.8674 197.333 88.9116 196.66 88.9453C196.994 88.9286 197.323 88.9089 197.648 88.8867L198.625 88.8115ZM260.701 88.918C260.482 88.9034 260.266 88.8877 260.052 88.8701C260.266 88.8877 260.482 88.9035 260.701 88.918ZM189.929 88.916C189.746 88.9047 189.564 88.8931 189.384 88.8799C189.564 88.8931 189.746 88.9047 189.929 88.916ZM267.678 88.8857C267.546 88.8959 267.414 88.904 267.28 88.9131C267.414 88.904 267.546 88.8959 267.678 88.8857ZM268.392 88.8232C268.245 88.8373 268.097 88.8507 267.947 88.8633C268.097 88.8507 268.245 88.8373 268.392 88.8232ZM188.979 88.8486C188.798 88.8338 188.618 88.8176 188.44 88.8008C188.618 88.8176 188.798 88.8338 188.979 88.8486ZM259.678 88.8369C259.503 88.8208 259.33 88.8033 259.158 88.7852C259.33 88.8033 259.503 88.8209 259.678 88.8369ZM269.066 88.752C268.915 88.7693 268.762 88.7861 268.608 88.8018C268.762 88.7861 268.915 88.7693 269.066 88.752ZM597.708 88.7822C597.435 88.7872 597.161 88.791 596.887 88.791C597.161 88.791 597.435 88.7872 597.708 88.7822ZM598.529 88.7598C598.355 88.7661 598.181 88.7701 598.007 88.7744C598.181 88.7701 598.355 88.7661 598.529 88.7598ZM188.026 88.7598C187.853 88.7417 187.682 88.7221 187.512 88.7021C187.682 88.7221 187.853 88.7417 188.026 88.7598ZM595.093 88.7539C594.974 88.7491 594.856 88.7451 594.739 88.7393C594.856 88.7451 594.974 88.7491 595.093 88.7539ZM258.805 88.7461C258.62 88.7247 258.438 88.7016 258.258 88.6777C258.438 88.7016 258.62 88.7247 258.805 88.7461ZM599.348 88.7217C599.189 88.7304 599.03 88.7381 598.871 88.7451C599.03 88.7381 599.189 88.7304 599.348 88.7217ZM269.729 88.6699C269.584 88.6895 269.437 88.7086 269.288 88.7266C269.437 88.7086 269.584 88.6895 269.729 88.6699ZM594.446 88.7227C594.346 88.7168 594.247 88.7108 594.148 88.7041C594.247 88.7108 594.346 88.7168 594.446 88.7227ZM600.22 88.665C600.041 88.6785 599.861 88.6909 599.682 88.7021C599.861 88.6909 600.041 88.6785 600.22 88.665ZM593.787 88.6768C593.696 88.6695 593.606 88.6623 593.518 88.6543C593.606 88.6623 593.696 88.6695 593.787 88.6768ZM187.174 88.6621C186.932 88.6315 186.693 88.598 186.457 88.5635C186.693 88.598 186.932 88.6315 187.174 88.6621ZM601.035 88.5957C600.852 88.613 600.668 88.6295 600.484 88.6445C600.668 88.6296 600.852 88.613 601.035 88.5957ZM270.387 88.5742C270.244 88.5964 270.1 88.6181 269.955 88.6387C270.1 88.6181 270.244 88.5964 270.387 88.5742ZM257.959 88.6377C257.78 88.6123 257.603 88.5846 257.428 88.5566C257.603 88.5846 257.78 88.6123 257.959 88.6377ZM593.24 88.6279C593.121 88.6159 593.004 88.6022 592.889 88.5889C593.004 88.6023 593.121 88.6159 593.24 88.6279ZM601.887 88.5068C601.696 88.5287 601.506 88.55 601.314 88.5693C601.506 88.55 601.696 88.5287 601.887 88.5068ZM589.742 87.9492C590.303 88.1233 590.932 88.2754 591.628 88.4043C591.957 88.4652 592.306 88.518 592.675 88.5645C592.305 88.518 591.956 88.4652 591.627 88.4043C591.105 88.3076 590.621 88.1984 590.175 88.0762L589.742 87.9492ZM271.025 88.4678C270.876 88.4944 270.725 88.5202 270.572 88.5449C270.725 88.5202 270.876 88.4944 271.025 88.4678ZM185.457 88.4043C185.739 88.4544 186.026 88.4999 186.318 88.5439C186.026 88.4999 185.739 88.4544 185.457 88.4043ZM251.271 86.792C252.734 87.435 254.425 87.9592 256.343 88.3652C256.597 88.4162 256.857 88.4628 257.121 88.5078C256.857 88.4627 256.597 88.4162 256.342 88.3652C254.698 88.0172 253.221 87.5818 251.911 87.0596L251.271 86.792ZM202.211 88.3389C201.94 88.3877 201.666 88.4359 201.39 88.4814C201.666 88.4359 201.94 88.3877 202.211 88.3389ZM326.421 56.4277V88.4375H345.249C348.679 88.4375 351.628 88.137 354.079 87.5176L354.089 87.5146C356.542 86.8677 358.584 85.8814 360.17 84.5225L360.171 84.5215C361.776 83.1416 362.931 81.4214 363.632 79.3809C364.349 77.3659 364.695 75.03 364.695 72.3936C364.695 69.9219 364.391 67.7146 363.762 65.7881L363.632 65.4062C362.93 63.3628 361.77 61.6622 360.154 60.3301C358.57 58.9768 356.533 58.0076 354.089 57.3887C351.634 56.7413 348.681 56.4277 345.249 56.4277H326.421ZM271.646 88.3506C271.504 88.3793 271.36 88.4067 271.215 88.4336C271.36 88.4067 271.504 88.3793 271.646 88.3506ZM272.206 88.2305C272.074 88.2603 271.94 88.2902 271.805 88.3184C271.94 88.2902 272.074 88.2603 272.206 88.2305ZM203.064 88.1777C202.859 88.2182 202.652 88.2574 202.443 88.2959C202.652 88.2574 202.859 88.2181 203.064 88.1777ZM604.568 88.1133C604.304 88.16 604.038 88.206 603.771 88.249C604.038 88.206 604.304 88.16 604.568 88.1133ZM180.085 86.8984C181.209 87.3415 182.444 87.7236 183.789 88.0459L184.609 88.2324C183.22 87.9343 181.941 87.5762 180.772 87.1572L180.085 86.8984ZM272.754 88.1006C272.645 88.1278 272.535 88.1547 272.425 88.1807C272.535 88.1547 272.645 88.1278 272.754 88.1006ZM203.86 88.0146C203.643 88.061 203.424 88.1053 203.203 88.1494C203.424 88.1053 203.643 88.061 203.86 88.0146ZM605.382 87.9629C605.172 88.0036 604.96 88.0427 604.748 88.0811C604.96 88.0427 605.172 88.0036 605.382 87.9629ZM273.383 87.9336C273.25 87.9709 273.116 88.0085 272.98 88.0439C273.116 88.0085 273.25 87.9709 273.383 87.9336ZM204.552 87.8613C204.396 87.897 204.239 87.9323 204.081 87.9668C204.239 87.9323 204.396 87.897 204.552 87.8613ZM606.092 87.8193C605.917 87.8558 605.742 87.892 605.565 87.9268C605.742 87.8919 605.917 87.8558 606.092 87.8193ZM205.238 87.6982C205.148 87.7204 205.057 87.7429 204.966 87.7646C205.057 87.7429 205.148 87.7204 205.238 87.6982ZM606.797 87.666C606.693 87.6893 606.589 87.7126 606.484 87.7354C606.589 87.7126 606.693 87.6894 606.797 87.666ZM206.029 87.4971C205.919 87.5262 205.809 87.5555 205.697 87.584C205.809 87.5555 205.919 87.5262 206.029 87.4971ZM607.652 87.4658C607.511 87.5003 607.37 87.5341 607.228 87.5674C607.37 87.5341 607.511 87.5003 607.652 87.4658ZM346.467 87.4229C346.069 87.4318 345.663 87.4375 345.249 87.4375C345.663 87.4375 346.069 87.4317 346.467 87.4229ZM347.618 87.3838C347.322 87.3974 347.022 87.4067 346.717 87.415C347.022 87.4067 347.322 87.3974 347.618 87.3838ZM608.402 87.2754C608.242 87.3174 608.082 87.3599 607.92 87.4004C608.082 87.3599 608.242 87.3174 608.402 87.2754ZM206.917 87.252C206.745 87.3017 206.571 87.3513 206.396 87.3994C206.571 87.3513 206.744 87.3017 206.917 87.252ZM348.703 87.3193C348.646 87.3234 348.588 87.3282 348.53 87.332C348.588 87.3282 348.646 87.3234 348.703 87.3193ZM349.759 87.2305C349.687 87.2376 349.615 87.2442 349.542 87.251C349.615 87.2442 349.687 87.2376 349.759 87.2305ZM587.511 86.8906C587.635 86.9815 587.767 87.0709 587.909 87.1572C587.767 87.0709 587.635 86.9815 587.511 86.8906ZM350.83 87.1084C350.746 87.1195 350.661 87.1292 350.575 87.1396C350.661 87.1292 350.746 87.1194 350.83 87.1084ZM351.264 87.0479C351.204 87.0565 351.144 87.0658 351.084 87.0742C351.144 87.0658 351.204 87.0565 351.264 87.0479ZM351.803 86.9648C351.723 86.9779 351.643 86.9904 351.562 87.0029C351.643 86.9904 351.723 86.9779 351.803 86.9648ZM352.349 86.8691C352.24 86.8894 352.13 86.9096 352.019 86.9287C352.13 86.9096 352.24 86.8894 352.349 86.8691ZM610.852 86.5479C610.62 86.6261 610.387 86.7039 610.151 86.7793C610.387 86.7039 610.62 86.6261 610.852 86.5479ZM353.344 86.665C353.21 86.6956 353.075 86.7252 352.938 86.7539C353.075 86.7252 353.21 86.6955 353.344 86.665ZM175.541 84.3369C176.464 85.0838 177.548 85.7505 178.79 86.3379L179.424 86.625C178.128 86.0643 176.992 85.4243 176.016 84.7041L175.541 84.3369ZM354.253 86.4316C354.128 86.4675 354.001 86.5031 353.873 86.5371C354.001 86.5031 354.128 86.4675 354.253 86.4316ZM611.565 86.3008C611.412 86.3553 611.258 86.4087 611.104 86.4619C611.258 86.4087 611.412 86.3553 611.565 86.3008ZM586.522 85.8516C586.641 86.0527 586.792 86.2448 586.973 86.4297C586.792 86.2448 586.641 86.0527 586.522 85.8516C586.481 85.778 586.443 85.7038 586.406 85.6299C586.443 85.7038 586.481 85.778 586.522 85.8516ZM612.221 86.0615C612.095 86.1086 611.968 86.155 611.841 86.2012C611.968 86.155 612.095 86.1086 612.221 86.0615ZM355.473 86.0381C355.418 86.058 355.362 86.0772 355.307 86.0967C355.362 86.0772 355.418 86.058 355.473 86.0381ZM355.837 85.9004C355.777 85.9237 355.717 85.947 355.656 85.9697C355.717 85.947 355.777 85.9237 355.837 85.9004ZM612.876 85.8105C612.772 85.8515 612.667 85.8923 612.562 85.9326C612.667 85.8923 612.772 85.8515 612.876 85.8105ZM356.247 85.7354C356.167 85.769 356.086 85.8013 356.005 85.834C356.086 85.8013 356.167 85.769 356.247 85.7354ZM356.581 85.5889C356.511 85.6205 356.44 85.6518 356.368 85.6826C356.44 85.6518 356.511 85.6205 356.581 85.5889ZM613.512 85.5557C613.43 85.5892 613.348 85.6231 613.266 85.6562C613.348 85.6231 613.43 85.5892 613.512 85.5557ZM586.388 85.5918C586.36 85.5336 586.333 85.4754 586.309 85.417C586.333 85.4754 586.36 85.5336 586.388 85.5918ZM356.935 85.4248C356.867 85.4575 356.798 85.4896 356.729 85.5215C356.798 85.4896 356.867 85.4575 356.935 85.4248ZM297.167 85.2217C297.127 85.2986 297.085 85.3739 297.044 85.4502C297.084 85.374 297.126 85.2984 297.166 85.2217L297.489 84.5752L297.167 85.2217ZM614.205 85.2637C614.102 85.3084 613.998 85.3534 613.894 85.3975C613.998 85.3534 614.102 85.3084 614.205 85.2637ZM586.287 85.3623C586.265 85.3089 586.245 85.2557 586.226 85.2021C586.245 85.2557 586.265 85.3089 586.287 85.3623ZM357.27 85.2578C357.208 85.2893 357.147 85.3207 357.085 85.3516C357.147 85.3207 357.208 85.2893 357.27 85.2578ZM280.208 84.5781C279.95 84.785 279.68 84.9847 279.398 85.1797C279.556 85.0709 279.71 84.9612 279.859 84.8486L280.208 84.5781ZM357.666 85.0439C357.588 85.0877 357.51 85.1322 357.43 85.1748C357.51 85.1322 357.588 85.0877 357.666 85.0439ZM586.205 85.1416C586.188 85.0896 586.171 85.0376 586.156 84.9854C586.171 85.0376 586.188 85.0896 586.205 85.1416ZM615.134 84.8506C614.934 84.9427 614.733 85.0325 614.53 85.1221C614.733 85.0325 614.934 84.9427 615.134 84.8506ZM357.945 84.8828C357.871 84.9269 357.797 84.9717 357.721 85.0146C357.797 84.9717 357.871 84.9269 357.945 84.8828ZM586.137 84.9189C586.122 84.8654 586.11 84.8116 586.099 84.7578C586.11 84.8116 586.122 84.8654 586.137 84.9189ZM358.257 84.6914C358.197 84.7294 358.137 84.7675 358.076 84.8047C358.137 84.7675 358.197 84.7294 358.257 84.6914ZM586.034 83.6377C586.025 83.773 586.021 83.9053 586.021 84.0342C586.021 84.2589 586.043 84.4818 586.087 84.7031C586.058 84.558 586.037 84.4123 586.027 84.2656L586.02 84.0342L586.034 83.6377ZM358.6 84.4668C358.525 84.5177 358.45 84.5676 358.374 84.6172C358.45 84.5676 358.525 84.5177 358.6 84.4668ZM358.854 84.2852C358.793 84.329 358.733 84.374 358.672 84.417C358.733 84.374 358.793 84.329 358.854 84.2852ZM618.906 82.833C618.024 83.3731 617.078 83.8944 616.068 84.4004C616.858 84.0046 617.609 83.5992 618.32 83.1826L618.906 82.833ZM173.88 82.7588C174.129 83.0334 174.392 83.3021 174.668 83.5654L175.093 83.957C174.803 83.6993 174.526 83.4361 174.264 83.167L173.88 82.7588ZM359.783 83.5283C359.696 83.6079 359.608 83.6865 359.519 83.7637C359.608 83.6866 359.697 83.6077 359.783 83.5283ZM281.452 83.4434C281.36 83.5376 281.266 83.6317 281.17 83.7246C281.266 83.6317 281.36 83.5376 281.452 83.4434ZM360.03 83.2939C359.993 83.3301 359.955 83.3647 359.917 83.4004C359.955 83.3647 359.993 83.3301 360.03 83.2939ZM281.752 83.1289C281.719 83.1647 281.685 83.1998 281.651 83.2354C281.685 83.1998 281.719 83.1647 281.752 83.1289ZM360.278 83.043C360.24 83.0831 360.2 83.1225 360.161 83.1621C360.2 83.1225 360.24 83.0831 360.278 83.043ZM282.018 82.833C281.963 82.8956 281.907 82.9575 281.851 83.0195C281.907 82.9575 281.963 82.8956 282.018 82.833ZM360.517 82.7861C360.466 82.8421 360.415 82.8971 360.363 82.9521C360.415 82.8971 360.466 82.8421 360.517 82.7861ZM282.249 82.5605C282.217 82.5994 282.184 82.6381 282.151 82.6768C282.184 82.6381 282.217 82.5994 282.249 82.5605ZM360.753 82.5146C360.708 82.5677 360.663 82.6196 360.617 82.6719C360.663 82.6196 360.708 82.5677 360.753 82.5146ZM376.742 82.4521C376.732 82.4838 376.721 82.5153 376.711 82.5469C376.725 82.5053 376.738 82.4637 376.752 82.4219L376.742 82.4521ZM360.983 82.2295C360.933 82.2943 360.881 82.3582 360.829 82.4219C360.881 82.3582 360.933 82.2943 360.983 82.2295ZM282.52 82.2246C282.472 82.286 282.422 82.3463 282.373 82.4072C282.422 82.3463 282.472 82.286 282.52 82.2246ZM282.731 81.9443C282.689 82.0013 282.647 82.0577 282.604 82.1143C282.647 82.0577 282.689 82.0013 282.731 81.9443ZM361.179 81.9707C361.143 82.019 361.107 82.0666 361.071 82.1143C361.107 82.0666 361.143 82.019 361.179 81.9707ZM586.359 82.04C586.381 81.9891 586.404 81.9377 586.43 81.8867C586.404 81.9377 586.381 81.9891 586.359 82.04ZM361.375 81.6924C361.34 81.7442 361.304 81.7956 361.268 81.8467C361.304 81.7956 361.34 81.7442 361.375 81.6924ZM586.466 81.8184C586.491 81.7719 586.516 81.7251 586.544 81.6787C586.516 81.7251 586.491 81.7719 586.466 81.8184ZM282.955 81.6309C282.927 81.6712 282.9 81.7118 282.871 81.752C282.9 81.7118 282.927 81.6712 282.955 81.6309ZM586.609 81.5752C586.633 81.5381 586.659 81.501 586.685 81.4639C586.659 81.501 586.633 81.5381 586.609 81.5752ZM361.564 81.4043C361.534 81.453 361.502 81.5016 361.471 81.5498C361.502 81.5016 361.534 81.453 361.564 81.4043ZM283.194 81.2725C283.153 81.3368 283.111 81.401 283.068 81.4648C283.111 81.401 283.153 81.3368 283.194 81.2725ZM586.759 81.3613C586.795 81.3126 586.834 81.2645 586.874 81.2158C586.834 81.2645 586.795 81.3126 586.759 81.3613ZM361.735 81.123C361.706 81.173 361.677 81.2231 361.646 81.2725C361.677 81.2231 361.706 81.173 361.735 81.123ZM586.928 81.1484C586.978 81.0891 587.031 81.0301 587.087 80.9707C587.031 81.0301 586.978 81.0891 586.928 81.1484ZM283.368 80.9922C283.34 81.0394 283.311 81.0869 283.282 81.1338C283.311 81.0869 283.34 81.0394 283.368 80.9922ZM361.93 80.7803C361.89 80.853 361.851 80.9255 361.81 80.9971C361.851 80.9255 361.89 80.853 361.93 80.7803ZM587.348 80.708C587.268 80.7832 587.193 80.8584 587.121 80.9336C587.193 80.8584 587.268 80.7832 587.348 80.708ZM283.574 80.6387C283.541 80.6976 283.509 80.7569 283.475 80.8154C283.509 80.7569 283.541 80.6976 283.574 80.6387ZM362.089 80.4736C362.052 80.5462 362.016 80.6189 361.979 80.6904C362.016 80.6189 362.052 80.5462 362.089 80.4736ZM283.763 80.29C283.727 80.3586 283.691 80.4271 283.654 80.4951C283.691 80.4271 283.727 80.3586 283.763 80.29ZM283.951 79.9092C283.914 79.9882 283.876 80.0672 283.837 80.1455C283.876 80.0672 283.914 79.9882 283.951 79.9092ZM362.564 79.3945C362.481 79.6155 362.391 79.8319 362.296 80.0439C362.391 79.8319 362.481 79.6155 362.564 79.3945ZM284.088 79.6064C284.054 79.6845 284.019 79.7625 283.983 79.8398C284.019 79.7625 284.054 79.6845 284.088 79.6064ZM572.946 78.1211C572.721 78.581 572.526 79.0589 572.355 79.5527C572.526 79.0586 572.721 78.5803 572.946 78.1201V78.1211ZM284.249 79.2227C284.214 79.3096 284.179 79.3963 284.143 79.4824C284.179 79.3963 284.214 79.3096 284.249 79.2227ZM590.854 78.6582C590.494 78.8064 590.155 78.9556 589.839 79.1055C590.155 78.9556 590.493 78.8064 590.854 78.6582C591.029 78.5874 591.212 78.517 591.403 78.4473C591.213 78.5169 591.03 78.5875 590.854 78.6582ZM284.751 77.7119C284.683 77.9501 284.612 78.1886 284.534 78.4268C284.611 78.1887 284.683 77.95 284.751 77.7119ZM591.552 78.3955C591.697 78.3439 591.846 78.2913 591.999 78.2402C591.846 78.2913 591.697 78.3439 591.552 78.3955ZM592.201 78.1748C592.343 78.1291 592.487 78.0833 592.636 78.0381C592.487 78.0833 592.343 78.1291 592.201 78.1748ZM592.885 77.9648C593.029 77.9223 593.176 77.879 593.326 77.8369C593.176 77.879 593.029 77.9223 592.885 77.9648ZM593.567 77.7705C593.736 77.7245 593.909 77.6792 594.085 77.6338C593.909 77.6792 593.736 77.7245 593.567 77.7705ZM574.496 75.7197C574.129 76.1646 573.796 76.6307 573.497 77.1182L573.21 77.6123C573.577 76.9435 574.006 76.3128 574.496 75.7197ZM594.331 77.5703C594.529 77.5206 594.731 77.4719 594.938 77.4229C594.731 77.4719 594.529 77.5206 594.331 77.5703ZM284.949 76.9648C284.908 77.1343 284.862 77.3032 284.815 77.4727C284.862 77.3032 284.908 77.1343 284.949 76.9648ZM595.955 77.1904C595.664 77.2538 595.38 77.3174 595.104 77.3818C595.38 77.3174 595.664 77.2538 595.955 77.1904ZM363.194 77.292C363.191 77.306 363.188 77.32 363.185 77.334C363.188 77.32 363.191 77.306 363.194 77.292ZM363.282 76.8818C363.276 76.9144 363.269 76.9471 363.263 76.9795C363.269 76.947 363.276 76.9144 363.282 76.8818ZM285.11 76.2461C285.077 76.4067 285.041 76.567 285.004 76.7275C285.041 76.567 285.077 76.4067 285.11 76.2461ZM170.617 76.1807C170.586 76.023 170.558 75.8651 170.531 75.707C170.557 75.8592 170.585 76.0112 170.614 76.1631L170.617 76.1807ZM363.364 76.4541C363.352 76.5235 363.339 76.5925 363.326 76.6611C363.339 76.5925 363.352 76.5235 363.364 76.4541ZM242.634 76.3525C242.61 76.2264 242.587 76.1005 242.565 75.9746C242.587 76.1005 242.61 76.2264 242.634 76.3525ZM363.42 76.1162C363.416 76.1403 363.413 76.1645 363.409 76.1885C363.413 76.1645 363.416 76.1403 363.42 76.1162ZM285.237 75.5664C285.22 75.6713 285.2 75.776 285.181 75.8809C285.2 75.776 285.22 75.6713 285.237 75.5664ZM363.483 75.6895C363.476 75.7444 363.468 75.799 363.46 75.8535C363.468 75.799 363.476 75.7444 363.483 75.6895ZM242.519 75.6797C242.508 75.6113 242.497 75.543 242.487 75.4746C242.497 75.543 242.508 75.6113 242.519 75.6797ZM170.499 75.502C170.48 75.3809 170.461 75.2599 170.444 75.1387C170.461 75.2599 170.48 75.3809 170.499 75.502ZM363.536 75.2754C363.53 75.3313 363.523 75.3869 363.516 75.4424C363.523 75.3869 363.53 75.3313 363.536 75.2754ZM242.464 75.3027C242.449 75.1978 242.435 75.0931 242.422 74.9883C242.435 75.0931 242.449 75.1978 242.464 75.3027ZM612.997 75.123C612.522 75.1528 612.056 75.1852 611.599 75.2168C612.056 75.1852 612.522 75.1528 612.997 75.123ZM285.348 74.8252C285.334 74.9297 285.319 75.0341 285.304 75.1387C285.319 75.0341 285.334 74.9297 285.348 74.8252ZM378.108 74.4648C378.113 74.3685 378.119 74.2718 378.123 74.1748C378.119 74.2718 378.113 74.3685 378.108 74.4648ZM363.584 74.8252C363.576 74.9044 363.568 74.9831 363.56 75.0615C363.568 74.9831 363.576 74.9044 363.584 74.8252ZM170.429 75.0225C170.412 74.8959 170.396 74.7693 170.382 74.6426C170.396 74.7693 170.412 74.8959 170.429 75.0225ZM242.409 74.876C242.394 74.7492 242.38 74.6226 242.367 74.4961C242.38 74.6226 242.394 74.7492 242.409 74.876ZM170.37 74.5459C170.354 74.3996 170.342 74.253 170.329 74.1064C170.342 74.253 170.354 74.3996 170.37 74.5459ZM299.964 74.1572C299.96 74.2441 299.953 74.3306 299.948 74.417C299.954 74.3134 299.961 74.2096 299.966 74.1055L299.964 74.1572ZM242.355 74.375C242.343 74.2453 242.333 74.1158 242.323 73.9863C242.333 74.1158 242.343 74.2453 242.355 74.375ZM285.424 74.1406C285.42 74.1865 285.416 74.2324 285.411 74.2783C285.416 74.2324 285.42 74.1865 285.424 74.1406ZM170.287 73.5176C170.296 73.6796 170.307 73.8413 170.32 74.0029C170.307 73.8413 170.296 73.6796 170.287 73.5176ZM378.142 73.6523C378.138 73.7697 378.133 73.8865 378.129 74.0029C378.134 73.8736 378.139 73.7438 378.143 73.6133L378.142 73.6523ZM242.317 73.9023C242.308 73.7707 242.3 73.6392 242.293 73.5078C242.3 73.6392 242.308 73.7707 242.317 73.9023ZM363.666 73.6484C363.664 73.6836 363.664 73.7188 363.662 73.7539C363.664 73.7188 363.664 73.6836 363.666 73.6484ZM285.471 73.5029C285.47 73.5228 285.469 73.5427 285.468 73.5625C285.469 73.5427 285.47 73.5228 285.471 73.5029ZM242.271 72.9648C242.275 73.1193 242.281 73.2739 242.288 73.4287C242.281 73.2739 242.275 73.1193 242.271 72.9648ZM378.049 69.3369C378.122 70.3193 378.159 71.3382 378.159 72.3936L378.154 73.0273L378.158 72.3936C378.158 71.5492 378.135 70.7283 378.088 69.9307L378.049 69.3369ZM363.68 71.4883C363.68 71.5127 363.681 71.5371 363.682 71.5615C363.681 71.5371 363.68 71.5127 363.68 71.4883ZM170.295 71.3008C170.302 71.1807 170.311 71.061 170.321 70.9414C170.311 71.061 170.302 71.1807 170.295 71.3008ZM285.447 71.0938C285.451 71.1455 285.456 71.1972 285.459 71.249C285.456 71.1972 285.451 71.1455 285.447 71.0938ZM170.34 70.7295C170.346 70.6669 170.353 70.6045 170.359 70.542C170.353 70.6045 170.346 70.6669 170.34 70.7295ZM299.851 69.2129C299.896 69.6868 299.931 70.1672 299.956 70.6543C299.931 70.1672 299.896 69.6868 299.851 69.2129ZM285.386 70.4326C285.389 70.4662 285.394 70.4996 285.397 70.5332C285.394 70.4996 285.389 70.4662 285.386 70.4326ZM170.378 70.3691C170.388 70.2788 170.399 70.1887 170.411 70.0986C170.399 70.1887 170.388 70.2788 170.378 70.3691ZM170.42 70.0332C170.433 69.9338 170.447 69.8344 170.462 69.7354C170.447 69.8344 170.433 69.9338 170.42 70.0332ZM363.561 69.7324C363.566 69.7792 363.571 69.826 363.575 69.873C363.571 69.826 363.566 69.7792 363.561 69.7324ZM170.474 69.6533C170.489 69.5525 170.507 69.452 170.524 69.3516C170.507 69.452 170.489 69.5525 170.474 69.6533ZM587.548 68.5176C586.44 68.8261 585.391 69.1554 584.401 69.5029C585.13 69.2471 585.89 69.0003 586.683 68.7656L587.548 68.5176ZM285.153 68.9316C285.181 69.0752 285.209 69.2186 285.233 69.3623C285.209 69.2186 285.181 69.0752 285.153 68.9316ZM170.679 68.5615C170.65 68.6911 170.623 68.821 170.598 68.9512C170.623 68.821 170.65 68.6911 170.679 68.5615ZM363.454 68.8867C363.467 68.9734 363.478 69.0607 363.49 69.1484C363.478 69.0607 363.467 68.9734 363.454 68.8867ZM377.804 67.0488C377.856 67.4186 377.903 67.7943 377.944 68.1758L378.001 68.752C377.966 68.3646 377.925 67.9831 377.878 67.6074L377.804 67.0488ZM363.381 68.4297C363.398 68.5312 363.415 68.6334 363.431 68.7363C363.415 68.6334 363.398 68.5312 363.381 68.4297ZM284.979 68.1279C285.025 68.3163 285.067 68.5047 285.106 68.6934C285.067 68.5047 285.025 68.3163 284.979 68.1279ZM363.326 68.1279C363.336 68.1792 363.345 68.2306 363.354 68.2822C363.345 68.2306 363.336 68.1792 363.326 68.1279ZM171.342 66.2832C171.121 66.8908 170.934 67.5059 170.78 68.1279C170.902 67.6328 171.045 67.1422 171.21 66.6562L171.342 66.2832C171.385 66.1623 171.43 66.0421 171.478 65.9229C171.43 66.0421 171.385 66.1623 171.342 66.2832ZM594.301 67.0059C592.899 67.2557 591.563 67.5279 590.293 67.8213L589.354 68.0449C590.59 67.7408 591.893 67.4579 593.262 67.1973L594.301 67.0059ZM242.789 67.9814C242.821 67.8552 242.855 67.7296 242.891 67.6045C242.855 67.7296 242.821 67.8552 242.789 67.9814ZM242.939 67.4385C242.966 67.3481 242.993 67.2577 243.021 67.168C242.993 67.2577 242.966 67.3481 242.939 67.4385ZM363.076 67.0059C363.092 67.0671 363.108 67.1286 363.123 67.1904C363.108 67.1286 363.092 67.0671 363.076 67.0059ZM243.087 66.9688C243.118 66.8743 243.151 66.7803 243.185 66.6865C243.151 66.7803 243.118 66.8743 243.087 66.9688ZM598.704 66.3223C597.937 66.4254 597.187 66.5344 596.453 66.6484L595.364 66.8232C596.082 66.7038 596.816 66.5891 597.566 66.4805L598.704 66.3223ZM284.419 66.2051C284.459 66.3209 284.498 66.4374 284.534 66.5547C284.498 66.4375 284.459 66.3208 284.419 66.2051ZM243.243 66.5215C243.278 66.4269 243.315 66.3331 243.353 66.2393C243.316 66.3331 243.278 66.4269 243.243 66.5215ZM377.418 64.9014C377.494 65.2478 377.565 65.5999 377.629 65.958L377.721 66.499C377.662 66.1351 377.597 65.7771 377.527 65.4248L377.418 64.9014ZM362.812 66.0986C362.85 66.2171 362.888 66.3369 362.924 66.458C362.888 66.3369 362.85 66.2172 362.812 66.0986ZM243.436 66.0322C243.465 65.9609 243.496 65.8902 243.526 65.8193C243.496 65.8902 243.465 65.9609 243.436 66.0322ZM284.286 65.8408C284.309 65.9007 284.331 65.9612 284.353 66.0215C284.331 65.9612 284.309 65.9007 284.286 65.8408ZM611.571 64.9873C609.681 65.1371 607.86 65.2983 606.109 65.4707L603.536 65.7373C606.897 65.3699 610.539 65.0477 614.461 64.7705L611.571 64.9873ZM171.588 65.6572C171.6 65.6277 171.612 65.5978 171.625 65.5684C171.612 65.5978 171.6 65.6277 171.588 65.6572ZM284.144 65.4873C284.167 65.5437 284.19 65.6005 284.213 65.6572C284.19 65.6005 284.167 65.5437 284.144 65.4873ZM171.707 65.3867C171.737 65.3218 171.766 65.2568 171.797 65.1924C171.766 65.2568 171.737 65.3218 171.707 65.3867ZM283.986 65.1289C284.018 65.1973 284.048 65.2661 284.078 65.335C284.048 65.2661 284.018 65.1973 283.986 65.1289ZM298.814 63.8271C298.948 64.2697 299.07 64.7197 299.181 65.1768C299.129 64.9659 299.076 64.7565 299.021 64.5488L298.814 63.8271ZM362.439 65.0781C362.451 65.105 362.461 65.1322 362.472 65.1592C362.461 65.1322 362.451 65.105 362.439 65.0781ZM171.878 65.0273C171.906 64.9701 171.934 64.9123 171.963 64.8555C171.934 64.9123 171.906 64.9701 171.878 65.0273ZM283.833 64.8086C283.849 64.8413 283.865 64.8744 283.881 64.9072C283.865 64.8744 283.849 64.8413 283.833 64.8086ZM172.049 64.6953C172.079 64.6387 172.108 64.5816 172.14 64.5254C172.108 64.5816 172.079 64.6387 172.049 64.6953ZM283.655 64.4648C283.689 64.528 283.722 64.5916 283.755 64.6553C283.722 64.5916 283.689 64.528 283.655 64.4648ZM436.642 63.8574C436.649 63.6649 436.661 63.4778 436.676 63.2959C436.661 63.4768 436.65 63.663 436.643 63.8545L436.642 63.8574ZM172.25 64.334C172.283 64.2769 172.316 64.2198 172.351 64.1631C172.316 64.2198 172.283 64.2769 172.25 64.334ZM283.471 64.1338C283.498 64.1805 283.524 64.2274 283.551 64.2744C283.524 64.2274 283.498 64.1805 283.471 64.1338ZM361.994 64.1338C362.009 64.161 362.023 64.1884 362.037 64.2158C362.023 64.1884 362.009 64.161 361.994 64.1338ZM244.395 64.1143C244.442 64.0345 244.489 63.954 244.538 63.875C244.489 63.954 244.442 64.0345 244.395 64.1143ZM172.422 64.0469C172.467 63.9732 172.514 63.9001 172.562 63.8271C172.514 63.9001 172.467 63.9732 172.422 64.0469ZM283.275 63.8086C283.308 63.8612 283.34 63.9139 283.372 63.9668C283.34 63.9138 283.308 63.8612 283.275 63.8086ZM361.839 63.8525C361.846 63.8656 361.854 63.8785 361.861 63.8916C361.854 63.8785 361.846 63.8656 361.839 63.8525ZM172.653 63.6875C172.694 63.627 172.735 63.5668 172.776 63.5068C172.735 63.5668 172.694 63.627 172.653 63.6875ZM244.66 63.6875C244.711 63.6095 244.762 63.5313 244.814 63.4541C244.762 63.5313 244.711 63.6095 244.66 63.6875ZM283.037 63.4385C283.086 63.5107 283.133 63.5833 283.18 63.6562C283.133 63.5833 283.086 63.5107 283.037 63.4385ZM361.655 63.5439C361.678 63.5812 361.701 63.6187 361.724 63.6562C361.701 63.6187 361.678 63.5812 361.655 63.5439ZM172.882 63.3555C172.926 63.2931 172.973 63.2317 173.019 63.1699C172.973 63.2317 172.926 63.2931 172.882 63.3555ZM361.483 63.2764C361.499 63.2998 361.515 63.3231 361.53 63.3467C361.515 63.3231 361.499 63.2998 361.483 63.2764ZM282.862 63.1846C282.899 63.2368 282.936 63.2892 282.972 63.3418C282.936 63.2892 282.899 63.2368 282.862 63.1846ZM244.925 63.2949C244.986 63.2077 245.049 63.1214 245.113 63.0352C245.049 63.1214 244.986 63.2077 244.925 63.2949ZM620.543 62.9688C620.548 63.0458 620.551 63.1229 620.552 63.2002C620.551 63.1229 620.548 63.0458 620.543 62.9688ZM436.698 63.0732C436.708 62.9706 436.718 62.8696 436.73 62.7705C436.718 62.8696 436.708 62.9706 436.698 63.0732ZM173.112 63.0449C173.158 62.9844 173.205 62.9243 173.253 62.8643C173.205 62.9243 173.158 62.9844 173.112 63.0449ZM282.604 62.832C282.647 62.8887 282.691 62.9449 282.732 63.002C282.691 62.9449 282.647 62.8887 282.604 62.832ZM245.241 62.8643C245.307 62.7776 245.376 62.692 245.444 62.6064C245.376 62.692 245.307 62.7776 245.241 62.8643ZM361.072 62.7031C361.103 62.7423 361.132 62.7817 361.162 62.8213C361.132 62.7817 361.103 62.7423 361.072 62.7031ZM620.515 62.6592C620.52 62.7018 620.524 62.7444 620.528 62.7871C620.524 62.7444 620.52 62.7018 620.515 62.6592ZM173.347 62.7461C173.399 62.6809 173.453 62.6163 173.508 62.5518C173.453 62.6163 173.399 62.6809 173.347 62.7461ZM282.395 62.5625C282.433 62.6109 282.472 62.6592 282.51 62.708C282.472 62.6592 282.433 62.6109 282.395 62.5625ZM436.761 62.5625C436.775 62.4651 436.789 62.3692 436.806 62.2754C436.789 62.3692 436.775 62.4651 436.761 62.5625ZM360.893 62.4785C360.909 62.4984 360.925 62.5181 360.941 62.5381C360.925 62.5181 360.909 62.4984 360.893 62.4785ZM209.385 46.6289C210.358 46.8932 211.316 47.1799 212.257 47.4893C214.139 48.108 216.008 48.8038 217.864 49.5771V62.4941L217.863 62.4932V49.5771C216.007 48.8038 214.138 48.108 212.256 47.4893C211.55 47.2572 210.835 47.0378 210.111 46.8311L209.385 46.6289ZM245.559 62.4648C245.622 62.3874 245.688 62.3109 245.754 62.2344C245.688 62.3109 245.622 62.3874 245.559 62.4648ZM620.466 62.3467C620.473 62.386 620.48 62.4254 620.486 62.4648C620.48 62.4254 620.473 62.386 620.466 62.3467ZM173.615 62.4238C173.664 62.3672 173.715 62.3119 173.765 62.2559C173.715 62.3119 173.664 62.3672 173.615 62.4238ZM282.142 62.2559C282.178 62.2993 282.216 62.3421 282.252 62.3857C282.216 62.3421 282.178 62.2993 282.142 62.2559ZM216.895 61.9756C217.121 62.0952 217.345 62.2157 217.568 62.3359C217.345 62.2158 217.121 62.0952 216.895 61.9756ZM360.642 62.1846C360.672 62.2184 360.702 62.2519 360.731 62.2861C360.702 62.2519 360.672 62.2184 360.642 62.1846ZM620.399 62.0459C620.41 62.0885 620.42 62.1312 620.43 62.1738C620.42 62.1311 620.41 62.0885 620.399 62.0459ZM173.89 62.1162C173.944 62.0568 174 61.9983 174.056 61.9395C174 61.9983 173.944 62.0568 173.89 62.1162ZM281.826 61.8965C281.889 61.9653 281.951 62.034 282.012 62.1035C281.951 62.034 281.889 61.9653 281.826 61.8965ZM436.843 62.0918C436.863 61.9917 436.884 61.8936 436.907 61.7979C436.884 61.8936 436.863 61.9917 436.843 62.0918ZM360.417 61.9395C360.447 61.9713 360.478 62.0029 360.508 62.0352C360.478 62.0029 360.447 61.9713 360.417 61.9395ZM620.312 61.7354C620.329 61.7891 620.345 61.8427 620.36 61.8965C620.345 61.8427 620.329 61.7891 620.312 61.7354ZM376.065 60.5664C376.238 60.9847 376.4 61.4136 376.553 61.8525C376.454 61.5693 376.352 61.2902 376.245 61.0156L376.065 60.5664ZM174.766 61.2393C174.561 61.4275 174.364 61.6196 174.175 61.8145C174.364 61.6196 174.561 61.4275 174.766 61.2393ZM360.177 61.6953C360.211 61.7286 360.245 61.7612 360.278 61.7949C360.245 61.7612 360.211 61.7286 360.177 61.6953ZM215.743 61.3779C215.996 61.5072 216.247 61.6366 216.496 61.7666C216.247 61.6367 215.996 61.5071 215.743 61.3779ZM620.185 61.3779C620.212 61.4466 620.238 61.5151 620.262 61.584C620.238 61.5151 620.212 61.4466 620.185 61.3779ZM436.992 61.4736C436.995 61.4648 436.997 61.456 437 61.4473C436.997 61.456 436.995 61.4648 436.992 61.4736ZM620.067 61.1016C620.096 61.1657 620.125 61.2296 620.151 61.2939C620.125 61.2296 620.096 61.1658 620.067 61.1016ZM214.427 60.7168C214.788 60.8946 215.146 61.0736 215.499 61.2529C215.146 61.0738 214.788 60.8946 214.427 60.7168ZM437.193 60.8965C437.171 60.9515 437.149 61.0075 437.128 61.0645C437.151 61.0031 437.174 60.9428 437.198 60.8838L437.193 60.8965ZM577.651 60.8311C577.722 60.805 577.794 60.7779 577.865 60.752C577.794 60.7779 577.722 60.805 577.651 60.8311ZM247.185 60.7812C247.271 60.7041 247.359 60.6264 247.448 60.5508C247.359 60.6264 247.271 60.7041 247.185 60.7812ZM280.555 60.6523C280.604 60.6947 280.652 60.7384 280.7 60.7812C280.652 60.7384 280.604 60.6947 280.555 60.6523ZM358.981 60.6719C358.996 60.6825 359.009 60.6935 359.023 60.7041C359.009 60.6935 358.996 60.6825 358.981 60.6719ZM358.677 60.4521C358.731 60.49 358.785 60.5288 358.838 60.5674C358.785 60.5288 358.731 60.49 358.677 60.4521ZM280.233 60.3857C280.29 60.4312 280.345 60.4774 280.4 60.5234C280.345 60.4774 280.29 60.4312 280.233 60.3857ZM247.613 60.416C247.709 60.3382 247.805 60.2607 247.903 60.1846C247.805 60.2607 247.709 60.3382 247.613 60.416ZM578.888 60.3916C578.96 60.3668 579.033 60.3421 579.105 60.3174C579.033 60.3421 578.96 60.3668 578.888 60.3916ZM358.402 60.2666C358.434 60.2873 358.465 60.3092 358.496 60.3301C358.465 60.3092 358.434 60.2873 358.402 60.2666ZM279.898 60.124C279.965 60.1742 280.03 60.2254 280.095 60.2764C280.03 60.2254 279.965 60.1742 279.898 60.124ZM358.071 60.0596C358.126 60.093 358.181 60.127 358.235 60.1611C358.181 60.127 358.127 60.093 358.071 60.0596ZM619.48 60.0967C619.49 60.1084 619.499 60.12 619.508 60.1318C619.499 60.12 619.49 60.1084 619.48 60.0967ZM248.062 60.0645C248.161 59.9895 248.262 59.9151 248.365 59.8418C248.262 59.9151 248.161 59.9894 248.062 60.0645ZM437.654 60.0176C437.69 59.9617 437.724 59.9055 437.762 59.8516C437.724 59.9055 437.69 59.9617 437.654 60.0176ZM279.552 59.8691C279.608 59.9093 279.663 59.9506 279.719 59.9912C279.663 59.9506 279.608 59.9093 279.552 59.8691ZM357.759 59.877C357.821 59.9123 357.883 59.9483 357.944 59.9844C357.883 59.9483 357.821 59.9123 357.759 59.877ZM580.21 59.9521C580.276 59.9307 580.343 59.91 580.41 59.8887C580.343 59.91 580.276 59.9307 580.21 59.9521ZM619.256 59.8301C619.264 59.8395 619.273 59.849 619.281 59.8584C619.273 59.849 619.264 59.8395 619.256 59.8301ZM357.431 59.6973C357.498 59.7328 357.565 59.7692 357.631 59.8057C357.565 59.7692 357.498 59.7328 357.431 59.6973ZM279.201 59.6279C279.254 59.6634 279.306 59.6995 279.358 59.7354C279.306 59.6995 279.254 59.6634 279.201 59.6279ZM248.533 59.7227C248.628 59.6567 248.725 59.5919 248.823 59.5273C248.725 59.5919 248.628 59.6567 248.533 59.7227ZM375.057 58.4346C375.203 58.7057 375.345 58.982 375.482 59.2637L375.684 59.6904C375.551 59.4036 375.414 59.1221 375.272 58.8457L375.057 58.4346ZM212.062 59.5918C212.123 59.6192 212.184 59.6472 212.245 59.6748C212.184 59.6472 212.123 59.6192 212.062 59.5918ZM357.042 59.501C357.125 59.5411 357.206 59.5817 357.287 59.623C357.206 59.5817 357.125 59.5411 357.042 59.501ZM437.947 59.6006C437.957 59.5876 437.967 59.5743 437.978 59.5615C437.967 59.5743 437.957 59.5876 437.947 59.6006ZM583.372 59.0039C583.04 59.0957 582.711 59.1887 582.385 59.2842C582.097 59.3685 581.812 59.4528 581.531 59.5381C581.554 59.5311 581.577 59.5246 581.601 59.5176L582.385 59.2842C582.711 59.1887 583.04 59.0957 583.372 59.0039ZM356.694 59.3379C356.794 59.3831 356.894 59.4286 356.991 59.4756C356.894 59.4286 356.794 59.3831 356.694 59.3379ZM278.856 59.4033C278.887 59.4224 278.916 59.4418 278.946 59.4609C278.916 59.4417 278.887 59.4224 278.856 59.4033ZM211.468 59.334C211.554 59.3703 211.639 59.4076 211.724 59.4443C211.639 59.4076 211.554 59.3703 211.468 59.334ZM249.046 59.3809C249.128 59.3288 249.211 59.2787 249.295 59.2275C249.211 59.2787 249.128 59.3288 249.046 59.3809ZM438.186 59.3193C438.194 59.3098 438.203 59.3004 438.212 59.291C438.203 59.3004 438.194 59.3098 438.186 59.3193ZM356.314 59.1729C356.418 59.2162 356.521 59.2596 356.622 59.3047C356.521 59.2596 356.418 59.2162 356.314 59.1729ZM278.359 59.1006C278.444 59.1499 278.527 59.1998 278.609 59.25C278.527 59.1998 278.444 59.1499 278.359 59.1006ZM210.795 59.0576C210.91 59.1036 211.024 59.1505 211.138 59.1973C211.024 59.1505 210.91 59.1036 210.795 59.0576ZM356.016 59.0518C356.091 59.0816 356.167 59.1118 356.241 59.1426C356.167 59.1118 356.091 59.0816 356.016 59.0518ZM618.435 59.0938C618.44 59.0981 618.446 59.1021 618.452 59.1064C618.446 59.1021 618.44 59.0981 618.435 59.0938ZM250.07 58.7783C249.896 58.8731 249.725 58.9699 249.558 59.0684C249.725 58.9699 249.896 58.8731 250.07 58.7783ZM438.436 59.0684C438.449 59.0558 438.462 59.0427 438.476 59.0303C438.462 59.0427 438.449 59.0558 438.436 59.0684ZM278.006 58.8994C278.091 58.9468 278.176 58.9947 278.26 59.043C278.176 58.9947 278.091 58.9468 278.006 58.8994ZM355.602 58.8955C355.686 58.9259 355.769 58.9559 355.852 58.9873C355.769 58.9559 355.686 58.9259 355.602 58.8955ZM210.127 58.7979C210.272 58.8526 210.415 58.908 210.558 58.9639C210.415 58.908 210.272 58.8526 210.127 58.7979ZM617.855 58.707C617.947 58.7628 618.037 58.8177 618.123 58.875C618.037 58.8177 617.947 58.7628 617.855 58.707ZM355.246 58.7715C355.325 58.7982 355.404 58.824 355.482 58.8516C355.404 58.824 355.325 58.7982 355.246 58.7715ZM277.612 58.6875C277.679 58.7223 277.745 58.7567 277.811 58.792C277.745 58.7567 277.679 58.7223 277.612 58.6875ZM209.572 58.5928C209.685 58.6335 209.797 58.6735 209.908 58.7148C209.797 58.6735 209.685 58.6335 209.572 58.5928ZM354.847 58.6416C354.92 58.6645 354.994 58.6873 355.066 58.7109C354.994 58.6873 354.92 58.6645 354.847 58.6416ZM277.112 58.4346C277.214 58.484 277.314 58.5335 277.413 58.584C277.314 58.5335 277.214 58.484 277.112 58.4346ZM439.321 58.4121C439.316 58.415 439.312 58.418 439.307 58.4209C439.311 58.4182 439.316 58.4148 439.32 58.4121L439.492 58.3174L439.321 58.4121ZM276.646 58.2139C276.758 58.2653 276.87 58.3165 276.979 58.3691C276.87 58.3165 276.758 58.2653 276.646 58.2139ZM353.422 58.251C353.561 58.2847 353.698 58.3197 353.834 58.3555C353.698 58.3197 353.561 58.2847 353.422 58.251ZM352.965 58.1465C353.08 58.1719 353.194 58.1978 353.308 58.2246C353.194 58.1978 353.08 58.1719 352.965 58.1465ZM616.844 58.1562C616.883 58.1751 616.921 58.1948 616.959 58.2139C616.921 58.1948 616.883 58.175 616.844 58.1562ZM276.215 58.0225C276.327 58.0707 276.437 58.1185 276.547 58.168C276.437 58.1185 276.327 58.0707 276.215 58.0225ZM251.383 58.1318C251.539 58.0626 251.698 57.9939 251.859 57.9277C251.698 57.9939 251.539 58.0626 251.383 58.1318ZM616.357 57.9375C616.501 57.9986 616.64 58.0614 616.774 58.125C616.64 58.0614 616.501 57.9986 616.357 57.9375ZM374.364 57.25C374.445 57.3777 374.524 57.5064 374.603 57.6367L374.833 58.0322C374.757 57.8994 374.681 57.7679 374.603 57.6377L374.364 57.25ZM352.132 57.9785C352.184 57.9881 352.236 57.998 352.287 58.0078C352.236 57.998 352.184 57.9881 352.132 57.9785ZM207.128 57.7793C207.35 57.8471 207.569 57.9173 207.786 57.9883C207.569 57.9173 207.35 57.8471 207.128 57.7793ZM181.124 57.5967C180.806 57.7103 180.495 57.8287 180.192 57.9502C180.328 57.8959 180.464 57.8417 180.603 57.7891L181.124 57.5967ZM275.643 57.7832C275.779 57.8381 275.914 57.8937 276.048 57.9502C275.914 57.8937 275.779 57.8381 275.643 57.7832ZM252.044 57.8555C252.185 57.7994 252.328 57.7432 252.473 57.6895C252.328 57.7432 252.185 57.7994 252.044 57.8555ZM615.861 57.7393C615.962 57.7772 616.06 57.8165 616.156 57.8555C616.06 57.8165 615.962 57.7772 615.861 57.7393ZM351.297 57.8379C351.329 57.8428 351.361 57.8476 351.393 57.8525C351.361 57.8476 351.329 57.8428 351.297 57.8379ZM206.42 57.5713C206.604 57.6237 206.787 57.6779 206.968 57.7324C206.787 57.6779 206.604 57.6237 206.42 57.5713ZM615.29 57.5371C615.388 57.5698 615.484 57.6022 615.579 57.6357C615.484 57.6022 615.388 57.5697 615.29 57.5371ZM349.469 57.6133C349.511 57.6172 349.552 57.6219 349.594 57.626C349.552 57.6219 349.511 57.6172 349.469 57.6133ZM442.856 57.3887C442.372 57.4361 441.915 57.5091 441.483 57.6055C441.915 57.509 442.372 57.4361 442.856 57.3887C443.163 57.3592 443.479 57.3342 443.803 57.3115C443.479 57.3343 443.163 57.3592 442.856 57.3887ZM252.736 57.5947C252.864 57.5495 252.992 57.5045 253.122 57.4609C252.992 57.5045 252.864 57.5495 252.736 57.5947ZM348.427 57.5293C348.509 57.5348 348.59 57.5409 348.671 57.5469C348.59 57.5409 348.509 57.5348 348.427 57.5293ZM205.705 57.376C205.857 57.4162 206.009 57.4574 206.159 57.499C206.009 57.4574 205.857 57.4162 205.705 57.376ZM347.475 57.4756C347.508 57.4771 347.541 57.4789 347.574 57.4805C347.541 57.4789 347.508 57.4771 347.475 57.4756ZM614.625 57.3291C614.76 57.3684 614.891 57.4085 615.021 57.4492C614.891 57.4085 614.76 57.3683 614.625 57.3291ZM590.396 57.4141C590.513 57.3934 590.629 57.3717 590.746 57.3516C590.629 57.3717 590.513 57.3934 590.396 57.4141ZM274.073 57.2139C274.25 57.2704 274.424 57.3284 274.596 57.3887C274.424 57.3284 274.25 57.2704 274.073 57.2139ZM253.4 57.3701C253.547 57.323 253.696 57.2774 253.847 57.2324C253.696 57.2774 253.547 57.323 253.4 57.3701ZM444.062 57.2949C444.31 57.2792 444.563 57.2648 444.82 57.2529C444.563 57.2649 444.31 57.2791 444.062 57.2949ZM591.154 57.2832C591.288 57.2608 591.422 57.2385 591.556 57.2168C591.422 57.2385 591.288 57.2609 591.154 57.2832ZM204.989 57.1934C205.101 57.2208 205.212 57.2492 205.323 57.2773C205.212 57.2492 205.101 57.2208 204.989 57.1934ZM613.943 57.1426C614.107 57.1846 614.267 57.2266 614.424 57.2705C614.267 57.2266 614.107 57.1846 613.943 57.1426ZM447.382 57.1953C446.58 57.1953 445.816 57.2107 445.091 57.2402C445.437 57.2262 445.792 57.2154 446.156 57.208L447.381 57.1953H447.382ZM183.365 56.9082C183.167 56.9589 182.971 57.0111 182.778 57.0654L182.208 57.2344C182.395 57.1764 182.585 57.1198 182.777 57.0654L183.365 56.9082ZM272.96 56.8926C273.305 56.9821 273.639 57.0787 273.965 57.1807C273.639 57.0787 273.305 56.9821 272.96 56.8926ZM254.746 56.9805C255.004 56.9136 255.267 56.8492 255.534 56.7881L256.342 56.6152C256.616 56.5572 256.895 56.5029 257.18 56.4521L258.051 56.3105C257.46 56.3975 256.89 56.4993 256.343 56.6152C255.792 56.7254 255.259 56.8475 254.746 56.9805ZM592.097 57.1309C592.198 57.1151 592.3 57.1003 592.401 57.085C592.3 57.1003 592.198 57.1151 592.097 57.1309ZM204.219 57.0127C204.339 57.0399 204.459 57.0668 204.578 57.0947C204.459 57.0667 204.339 57.0399 204.219 57.0127ZM592.879 57.0137C593.007 56.9951 593.135 56.9769 593.263 56.959C593.135 56.9769 593.007 56.9952 592.879 57.0137ZM203.229 56.7998C203.436 56.8418 203.641 56.8845 203.845 56.9287C203.641 56.8845 203.436 56.8418 203.229 56.7998ZM593.831 56.8809C593.858 56.8772 593.886 56.8747 593.913 56.8711C593.886 56.8747 593.858 56.8772 593.831 56.8809ZM272.384 56.751C272.549 56.7896 272.713 56.8298 272.874 56.8711C272.713 56.8298 272.549 56.7896 272.384 56.751ZM611.522 56.6357C611.782 56.6779 612.034 56.7229 612.278 56.7705C612.034 56.7229 611.782 56.6779 611.522 56.6357ZM202.327 56.625C202.581 56.6716 202.832 56.7188 203.081 56.7686C202.832 56.7188 202.581 56.6716 202.327 56.625ZM271.809 56.624C271.97 56.6577 272.129 56.6925 272.287 56.7285C272.129 56.6925 271.97 56.6577 271.809 56.624ZM185.894 56.3857C185.671 56.422 185.452 56.4602 185.235 56.5L184.594 56.625C184.804 56.5815 185.018 56.5399 185.234 56.5L185.894 56.3857ZM271.258 56.5156C271.381 56.5386 271.502 56.5626 271.623 56.5869C271.502 56.5626 271.381 56.5386 271.258 56.5156ZM610.713 56.5176C610.857 56.5367 610.998 56.5575 611.138 56.5781C610.998 56.5576 610.857 56.5367 610.713 56.5176ZM373.351 55.7705C373.439 55.8893 373.525 56.0095 373.611 56.1309L373.866 56.5C373.782 56.376 373.697 56.2534 373.611 56.1318L373.351 55.7705ZM609.786 56.4082C609.967 56.4271 610.144 56.4478 610.318 56.4688C610.144 56.4478 609.967 56.4271 609.786 56.4082ZM270.606 56.4014C270.723 56.4204 270.838 56.4408 270.953 56.4609C270.838 56.4408 270.723 56.4204 270.606 56.4014ZM200.568 56.3271C200.813 56.3642 201.055 56.404 201.294 56.4453C201.055 56.404 200.813 56.3642 200.568 56.3271ZM608.844 56.3223C609.052 56.339 609.257 56.3567 609.458 56.376C609.257 56.3567 609.052 56.339 608.844 56.3223ZM269.936 56.2998C270.092 56.3219 270.248 56.3451 270.401 56.3691C270.248 56.3451 270.092 56.3219 269.936 56.2998ZM607.864 56.2539C608.088 56.2671 608.308 56.2811 608.524 56.2969C608.308 56.2811 608.088 56.2671 607.864 56.2539ZM269.225 56.207C269.411 56.2293 269.596 56.2525 269.778 56.2773C269.596 56.2525 269.411 56.2293 269.225 56.207ZM199.658 56.2012C199.841 56.2242 200.022 56.2501 200.201 56.2754C200.022 56.2501 199.841 56.2242 199.658 56.2012ZM606.765 56.2002C607.01 56.2096 607.25 56.2202 607.487 56.2324C607.25 56.2202 607.01 56.2096 606.765 56.2002ZM268.596 56.1377C268.778 56.1562 268.958 56.1755 269.137 56.1963C268.958 56.1755 268.778 56.1562 268.596 56.1377ZM198.754 56.0977C198.971 56.1202 199.186 56.1454 199.399 56.1709C199.186 56.1454 198.971 56.1201 198.754 56.0977ZM267.981 56.0811C268.127 56.0935 268.272 56.1053 268.415 56.1191C268.272 56.1053 268.127 56.0935 267.981 56.0811ZM197.834 56.0127C198.035 56.0292 198.233 56.0475 198.431 56.0664C198.233 56.0475 198.035 56.0292 197.834 56.0127ZM267.221 56.0234C267.373 56.0335 267.523 56.0431 267.673 56.0547C267.523 56.0431 267.373 56.0335 267.221 56.0234ZM190.221 55.9287C189.963 55.9432 189.707 55.9604 189.455 55.9785L188.707 56.0381C188.953 56.0163 189.203 55.9957 189.455 55.9775L190.221 55.9287ZM289.095 50.7744C289.506 51.0495 289.906 51.3337 290.296 51.627C292.009 52.9152 293.503 54.3796 294.78 56.0176C293.503 54.3796 292.009 52.9152 290.296 51.627C290.101 51.4804 289.903 51.3364 289.703 51.1943L289.095 50.7744ZM266.582 55.9854C266.724 55.9927 266.865 56.0002 267.005 56.0088C266.865 56.0002 266.724 55.9927 266.582 55.9854ZM196.888 55.9453C197.097 55.9583 197.306 55.9718 197.512 55.9873C197.306 55.9718 197.097 55.9583 196.888 55.9453ZM264.759 55.9248C265.261 55.9321 265.753 55.9465 266.234 55.9678C266.005 55.9576 265.774 55.9493 265.54 55.9424L264.759 55.9248ZM195.836 55.8906C196.064 55.9 196.29 55.9097 196.515 55.9219C196.29 55.9097 196.064 55.9 195.836 55.8906ZM192.625 55.8477C192.349 55.8513 192.076 55.857 191.806 55.8643L191.004 55.8906C191.268 55.8797 191.535 55.8705 191.806 55.8633L192.625 55.8477ZM631.982 54.4307C632.158 54.6683 632.324 54.9115 632.486 55.1582C632.421 55.0589 632.356 54.9592 632.289 54.8613L631.982 54.4307ZM372.238 54.4023C372.335 54.5112 372.432 54.621 372.526 54.7324L372.808 55.0713C372.715 54.9574 372.621 54.8448 372.526 54.7334L372.238 54.4023ZM424.202 54.3613C424.075 54.5931 423.956 54.8301 423.843 55.0713C423.956 54.8298 424.074 54.5924 424.202 54.3604V54.3613ZM630.978 53.1982C631.096 53.3301 631.212 53.4635 631.326 53.5986L631.661 54.0098C631.552 53.8713 631.44 53.7348 631.326 53.5996L630.978 53.1982ZM370.699 52.8623C370.915 53.055 371.128 53.2523 371.335 53.4551L371.643 53.7637C371.439 53.5557 371.232 53.3532 371.02 53.1553L370.699 52.8623ZM425.389 52.5957C425.299 52.7067 425.211 52.8189 425.126 52.9326L424.876 53.2773C424.957 53.1608 425.04 53.0454 425.126 52.9316L425.389 52.5957ZM369.695 52.0283C369.81 52.1173 369.924 52.2073 370.037 52.2988L370.371 52.5771C370.261 52.4831 370.149 52.3903 370.036 52.2988L369.695 52.0283ZM629.439 51.6895C629.577 51.8086 629.712 51.9294 629.845 52.0518L630.236 52.4248C630.108 52.2992 629.978 52.1752 629.845 52.0527L629.439 51.6895ZM626.705 49.7178C627.369 50.1174 627.996 50.542 628.585 50.9932L629.019 51.3369C628.449 50.8729 627.842 50.4349 627.196 50.0225L626.705 49.7178ZM367.897 50.7705L368.268 51.0107C368.022 50.8485 367.774 50.6909 367.521 50.5371L367.897 50.7705ZM285.114 48.543C286.062 48.9844 286.967 49.4616 287.831 49.9756L288.471 50.3682C287.628 49.836 286.743 49.3405 285.816 48.8809L285.114 48.543ZM364.748 49.0762C365.269 49.3104 365.776 49.5609 366.272 49.8252C365.645 49.4908 364.998 49.1799 364.331 48.8936L364.748 49.0762ZM622.932 47.8564C623.707 48.1658 624.45 48.5004 625.16 48.8613L625.687 49.1377C624.993 48.7639 624.267 48.416 623.508 48.0938L622.932 47.8564ZM363.05 48.3818C363.212 48.4419 363.373 48.5037 363.533 48.5664C363.516 48.5596 363.499 48.5526 363.481 48.5459L363.05 48.3818ZM177.916 46.252C175.715 46.8148 173.659 47.5185 171.749 48.3604C173.413 47.6268 175.187 46.9973 177.072 46.4756L177.916 46.252ZM359.926 47.3936C360.54 47.5563 361.143 47.733 361.734 47.9248L362.612 48.2236C362.032 48.0174 361.441 47.8257 360.838 47.6484L359.926 47.3936ZM282.912 47.6104C283.165 47.7071 283.415 47.8059 283.662 47.9072L284.396 48.2188C284.153 48.1129 283.909 48.0095 283.661 47.9082L282.912 47.6104ZM620.505 47.0059C620.926 47.1348 621.339 47.2693 621.743 47.4111L622.344 47.6289C621.947 47.4806 621.543 47.3395 621.13 47.2041L620.505 47.0059ZM279.755 46.5576C280.302 46.715 280.839 46.8811 281.365 47.0566L282.146 47.3271C281.115 46.9581 280.042 46.6256 278.927 46.3291L279.755 46.5576ZM356.107 46.5908C356.437 46.6432 356.764 46.6991 357.088 46.7588L358.051 46.9492C357.096 46.7487 356.116 46.5807 355.11 46.4453L356.107 46.5908ZM618.555 46.4688C618.778 46.5236 618.999 46.5806 619.218 46.6387L619.867 46.8174C619.652 46.7561 619.436 46.6967 619.217 46.6387L618.555 46.4688ZM617.193 46.1592L617.88 46.3096C617.426 46.2064 616.964 46.1098 616.493 46.0195L617.193 46.1592ZM254.059 45.2422C252.302 45.5189 250.615 45.8745 248.996 46.3086C250.615 45.8745 252.302 45.519 254.059 45.2422ZM187.931 44.6816C186.322 44.7949 184.755 44.9649 183.229 45.1914L182.318 45.334C183.828 45.0847 185.378 44.8918 186.971 44.7559L187.931 44.6816ZM256.043 44.9658C255.456 45.0367 254.877 45.1166 254.305 45.2041C254.571 45.1634 254.839 45.1231 255.108 45.0859L256.043 44.9658ZM604.157 44.8984C603.307 44.8984 602.441 44.9125 601.562 44.9414C602.441 44.9124 603.307 44.8984 604.157 44.8984ZM259.902 44.625C259.243 44.6628 258.591 44.7108 257.948 44.7676L256.989 44.8594C257.624 44.7931 258.267 44.7358 258.919 44.6885L259.902 44.625ZM192.882 44.5117C191.867 44.5117 190.866 44.5324 189.881 44.5732L188.901 44.6201C190.202 44.5476 191.528 44.5117 192.882 44.5117ZM374.699 87.0625C374.654 87.1392 374.608 87.2152 374.562 87.291C374.608 87.2152 374.654 87.1392 374.699 87.0625ZM352.896 86.7627C352.754 86.7924 352.609 86.8209 352.463 86.8486C352.609 86.8209 352.754 86.7924 352.896 86.7627ZM355.051 86.1846C354.938 86.2222 354.824 86.2589 354.709 86.2949C354.824 86.2589 354.938 86.2222 355.051 86.1846ZM354.678 86.3047C354.543 86.3465 354.407 86.3872 354.27 86.4268C354.407 86.3872 354.543 86.3465 354.678 86.3047ZM358.956 84.2129L358.96 84.209C358.925 84.235 358.889 84.2594 358.854 84.2852C358.887 84.2605 358.923 84.2378 358.956 84.2129ZM362.275 80.0898C362.23 80.1906 362.181 80.2899 362.133 80.3887C362.181 80.2899 362.23 80.1906 362.275 80.0898ZM377.66 78.6992C377.642 78.8042 377.623 78.9087 377.604 79.0127C377.623 78.9087 377.642 78.8042 377.66 78.6992ZM378.093 74.7793C378.099 74.6749 378.103 74.57 378.108 74.4648C378.103 74.57 378.099 74.6749 378.093 74.7793ZM170.287 73.5176C170.278 73.3459 170.27 73.174 170.266 73.002C170.27 73.174 170.278 73.3459 170.287 73.5176ZM170.284 71.502C170.288 71.4348 170.291 71.3677 170.295 71.3008C170.291 71.3677 170.288 71.4348 170.284 71.502ZM363.509 69.2871C363.522 69.3938 363.535 69.5012 363.547 69.6094C363.535 69.5012 363.522 69.3938 363.509 69.2871ZM170.543 69.2441C170.561 69.1463 170.578 69.0486 170.598 68.9512C170.578 69.0486 170.561 69.1463 170.543 69.2441ZM170.686 68.5322C170.712 68.4131 170.74 68.2943 170.769 68.1758C170.74 68.2943 170.712 68.4131 170.686 68.5322ZM170.686 68.5322C170.683 68.542 170.681 68.5517 170.679 68.5615C170.681 68.5517 170.683 68.542 170.686 68.5322ZM254.068 57.166C254.291 57.102 254.516 57.04 254.746 56.9805C254.516 57.04 254.291 57.102 254.068 57.166Z" fill="#E8F0FF"/>
</g>
<defs>
<clipPath id="clip0_7143_79">
<rect width="664.146" height="143.132" fill="white" transform="translate(0.5 0.623047)"/>
</clipPath>
</defs>
</svg>
