<svg width="726" height="118" viewBox="0 0 726 118" fill="none" xmlns="http://www.w3.org/2000/svg">
<path d="M78.1459 55.8463L78.1472 55.8239C78.7529 45.4296 82.6992 35.5074 89.4002 27.5314C96.1061 19.5497 105.212 13.9434 115.365 11.5464C125.517 9.14949 136.172 10.09 145.746 14.228C155.32 18.366 163.301 25.4805 168.502 34.5131C173.703 43.5457 175.845 54.0139 174.611 64.3605C173.377 74.7071 168.831 84.3793 161.651 91.9384C154.471 99.4974 145.04 104.539 134.761 106.315C124.481 108.09 113.903 106.503 104.599 101.79L100.732 109.406C105.046 111.591 109.592 113.204 114.258 114.23C121.432 115.807 128.889 115.994 136.217 114.729C148.31 112.64 159.406 106.708 167.853 97.8154C176.3 88.9223 181.647 77.5433 183.1 65.3708C184.552 53.1983 182.031 40.8828 175.913 30.2562C169.794 19.6296 160.405 11.2597 149.141 6.39141C137.878 1.52315 125.342 0.416693 113.398 3.23663C101.454 6.05657 90.741 12.6522 82.8517 22.0425C78.0715 27.7323 74.4827 34.2639 72.2393 41.2507C70.7802 45.7947 69.8901 50.5313 69.6114 55.3541L78.1459 55.8463Z" fill="#E8F0FF"/>
<path d="M69.2417 4.76976C61.612 3.0926 53.6672 2.98892 45.9037 4.52696C33.3943 7.00525 22.0785 13.6028 13.7668 23.264C5.45507 32.9253 0.627735 45.0919 0.0571057 57.8175C-0.513519 70.543 3.20554 83.092 10.6193 93.4567C18.033 103.822 28.713 111.403 40.9505 114.988C53.1881 118.574 66.276 117.956 78.1203 113.233C89.9647 108.511 99.8809 99.9568 106.283 88.9396C110.256 82.1023 112.733 74.5616 113.617 66.8085C114.157 62.0711 114.103 57.2543 113.433 52.4704L113.432 52.4641L112.784 52.5547C113.351 51.278 114.097 50.0788 115.008 48.9953C117.086 46.5216 119.908 44.7841 123.055 44.0413C126.201 43.2984 129.503 43.5899 132.471 44.8723C135.438 46.1548 137.911 48.3597 139.523 51.1591C141.135 53.9585 141.799 57.2028 141.416 60.4094C141.034 63.6161 139.625 66.6137 137.4 68.9564C135.175 71.2991 132.252 72.8617 129.066 73.4119C125.88 73.962 122.602 73.4702 119.718 72.0097L118.52 74.3699C119.856 75.0464 121.266 75.5474 122.712 75.865C124.935 76.3538 127.246 76.4117 129.517 76.0195C133.265 75.3723 136.704 73.5339 139.322 70.7778C141.94 68.0217 143.597 64.4951 144.047 60.7226C144.497 56.9501 143.716 53.1332 141.82 49.8398C139.923 46.5464 137.013 43.9524 133.523 42.4436C130.032 40.9348 126.147 40.5919 122.445 41.4659C118.743 42.3398 115.423 44.384 112.978 47.2942C111.559 48.9836 110.478 50.9124 109.779 52.9754L101.905 54.0775C102.689 49.8546 104.554 45.886 107.341 42.569C110.804 38.4462 115.508 35.5503 120.752 34.3122C125.996 33.0741 131.5 33.5599 136.445 35.6974C141.391 37.8348 145.513 41.5096 148.199 46.1753C150.886 50.841 151.992 56.2481 151.355 61.5925C150.717 66.9369 148.37 71.9329 144.661 75.8374C140.952 79.7419 136.081 82.3463 130.771 83.2632C125.462 84.1799 119.999 83.3607 115.194 80.9274L113.194 84.8599C115.422 85.9885 117.771 86.822 120.181 87.3518C123.886 88.1665 127.738 88.2629 131.523 87.6093C137.77 86.5306 143.501 83.4666 147.864 78.8731C152.227 74.2795 154.989 68.4019 155.74 62.1144C156.49 55.8269 155.188 49.4655 152.027 43.9765C148.867 38.4875 144.017 34.1641 138.199 31.6495C132.381 29.1349 125.906 28.5634 119.736 30.0199C113.567 31.4765 108.033 34.8834 103.958 39.7338C101.489 42.6728 99.6353 46.0466 98.4765 49.6555C97.9483 51.3003 97.5645 52.994 97.3325 54.7176L89.8014 55.7718C90.3983 48.1367 93.3679 40.871 98.3046 34.995C103.401 28.9286 110.323 24.6675 118.039 22.8458C125.755 21.024 133.853 21.7388 141.13 24.8839C148.407 28.0289 154.473 33.4362 158.425 40.3014C162.378 47.1666 164.006 55.1229 163.068 62.9867C162.13 70.8506 158.676 78.2019 153.219 83.9471C147.761 89.6923 140.593 93.5245 132.78 94.8736C124.969 96.2225 116.93 95.017 109.859 91.4363L109.856 91.4349L106.917 97.223L106.925 97.2269C110.201 98.8855 113.654 100.111 117.198 100.89C122.65 102.088 128.318 102.23 133.887 101.269C143.079 99.6814 151.512 95.173 157.932 88.4139C164.352 81.6548 168.416 73.0062 169.52 63.7546C170.624 54.503 168.708 45.1427 164.058 37.066C159.407 28.9893 152.271 22.6278 143.71 18.9277C135.15 15.2276 125.622 14.3867 116.544 16.5299C107.466 18.6732 99.3236 23.6862 93.3274 30.8232C89.6942 35.1477 86.9667 40.112 85.2615 45.4222C84.1541 48.8712 83.4779 52.4661 83.2651 56.1265L83.2642 56.1415L88.6658 56.453C89.5198 63.352 88.0929 70.3462 84.5947 76.3666C81.0097 82.5362 75.4565 87.3265 68.8237 89.9711C62.1909 92.6156 54.8617 92.9617 48.0086 90.9539C41.1556 88.9461 35.1748 84.7004 31.0231 78.8962C26.8714 73.0919 24.7888 66.0645 25.1083 58.9382C25.4279 51.8119 28.1312 44.9986 32.7857 39.5883C37.4403 34.1779 43.7771 30.4833 50.7824 29.0955C57.7877 27.7077 65.0566 28.7068 71.4262 31.9331L82.7676 9.5941C78.4523 7.40835 73.9059 5.79504 69.2417 4.76976Z" fill="#E8F0FF"/>
<path d="M232.741 88.9574C229.018 88.9574 225.508 88.2925 222.21 86.9628C218.966 85.5799 216.147 83.6385 213.753 81.1387C211.413 78.6388 209.658 75.6868 208.487 72.2827L218.62 67.7351C220.109 70.9796 222.157 73.5327 224.763 75.3943C227.423 77.2559 230.348 78.1867 233.539 78.1867C235.241 78.1867 236.704 77.9207 237.927 77.3889C239.151 76.857 240.108 76.1389 240.799 75.2347C241.491 74.2773 241.837 73.1604 241.837 71.8838C241.837 70.5009 241.411 69.3308 240.56 68.3734C239.709 67.3628 238.379 66.565 236.571 65.9799L224.923 62.1503C220.189 60.6078 216.625 58.4271 214.232 55.6081C211.838 52.7359 210.642 49.3052 210.642 45.3161C210.642 41.8056 211.493 38.7207 213.195 36.0612C214.95 33.4018 217.37 31.3274 220.455 29.8382C223.593 28.3489 227.183 27.6042 231.226 27.6042C234.789 27.6042 238.087 28.2159 241.119 29.4392C244.15 30.6626 246.757 32.3912 248.937 34.6251C251.171 36.8591 252.847 39.5451 253.964 42.6832L243.911 47.2309C242.794 44.4651 241.119 42.3109 238.885 40.7684C236.651 39.1728 234.098 38.3749 231.226 38.3749C229.577 38.3749 228.114 38.6409 226.837 39.1728C225.561 39.7047 224.577 40.4759 223.885 41.4865C223.194 42.4439 222.848 43.5608 222.848 44.8374C222.848 46.2203 223.3 47.4436 224.205 48.5074C225.109 49.518 226.465 50.3158 228.274 50.9009L239.683 54.5709C244.47 56.1134 248.033 58.2675 250.373 61.0333C252.767 63.7991 253.964 67.1766 253.964 71.1658C253.964 74.623 253.059 77.708 251.251 80.4206C249.443 83.08 246.943 85.181 243.751 86.7235C240.613 88.2128 236.943 88.9574 232.741 88.9574ZM282.882 88.9574C278.255 88.9574 274.239 87.9468 270.835 85.9256C267.431 83.8513 264.798 81.0855 262.936 77.6282C261.075 74.1709 260.144 70.3414 260.144 66.1394C260.144 61.778 261.101 57.8952 263.016 54.4911C264.984 51.087 267.617 48.401 270.914 46.433C274.212 44.4651 277.935 43.4811 282.084 43.4811C285.541 43.4811 288.6 44.0395 291.259 45.1565C293.919 46.2203 296.153 47.7362 297.961 49.7041C299.823 51.6721 301.232 53.9592 302.189 56.5655C303.147 59.1185 303.626 61.9109 303.626 64.9427C303.626 65.7937 303.572 66.6447 303.466 67.4958C303.413 68.2936 303.28 68.985 303.067 69.5701H270.436V60.794H296.285L290.621 64.9427C291.153 62.6556 291.126 60.6344 290.541 58.8792C289.956 57.0708 288.919 55.6613 287.43 54.6507C285.993 53.5869 284.212 53.055 282.084 53.055C280.01 53.055 278.228 53.5603 276.739 54.5709C275.249 55.5815 274.132 57.0708 273.388 59.0388C272.643 61.0067 272.351 63.4002 272.51 66.2192C272.297 68.6659 272.59 70.8201 273.388 72.6817C274.186 74.5433 275.409 76.0059 277.058 77.0697C278.707 78.0803 280.701 78.5856 283.041 78.5856C285.169 78.5856 286.977 78.1601 288.467 77.3091C290.009 76.4581 291.206 75.2879 292.057 73.7986L301.631 78.3463C300.78 80.4738 299.424 82.3354 297.562 83.9311C295.754 85.5267 293.599 86.7767 291.1 87.6809C288.6 88.5319 285.86 88.9574 282.882 88.9574ZM332.054 105.552C328.704 105.552 325.592 104.994 322.72 103.877C319.848 102.76 317.374 101.191 315.3 99.1696C313.279 97.2016 311.816 94.8613 310.912 92.1487L322.002 88.2393C322.587 90.2605 323.784 91.8562 325.592 93.0263C327.4 94.1965 329.555 94.7816 332.054 94.7816C334.022 94.7816 335.724 94.4092 337.161 93.6646C338.597 92.9731 339.687 91.936 340.432 90.5531C341.23 89.1702 341.628 87.5479 341.628 85.6863V75.7134L343.942 78.5856C342.453 81.0323 340.538 82.8673 338.198 84.0906C335.857 85.2608 333.118 85.8459 329.98 85.8459C325.938 85.8459 322.321 84.9417 319.13 83.1332C315.938 81.2716 313.438 78.7452 311.63 75.5538C309.822 72.3093 308.917 68.6393 308.917 64.5438C308.917 60.4483 309.822 56.8314 311.63 53.6933C313.438 50.502 315.912 48.0021 319.05 46.1937C322.188 44.3853 325.752 43.4811 329.741 43.4811C332.879 43.4811 335.618 44.1193 337.958 45.3959C340.299 46.6192 342.293 48.5074 343.942 51.0605L342.426 53.9326V44.4385H353.596V85.6863C353.596 89.5159 352.665 92.92 350.803 95.8985C348.942 98.9303 346.389 101.297 343.144 102.999C339.953 104.701 336.256 105.552 332.054 105.552ZM331.656 74.9954C333.677 74.9954 335.432 74.5699 336.921 73.7188C338.411 72.8678 339.554 71.6711 340.352 70.1286C341.203 68.5861 341.628 66.7777 341.628 64.7034C341.628 62.629 341.203 60.8206 340.352 59.2781C339.501 57.6824 338.331 56.4591 336.841 55.6081C335.352 54.7039 333.624 54.2518 331.656 54.2518C329.634 54.2518 327.826 54.7039 326.23 55.6081C324.688 56.4591 323.464 57.6824 322.56 59.2781C321.709 60.8206 321.284 62.629 321.284 64.7034C321.284 66.7245 321.709 68.5063 322.56 70.0488C323.464 71.5913 324.688 72.8146 326.23 73.7188C327.826 74.5699 329.634 74.9954 331.656 74.9954ZM362.407 88V44.4385H373.577V55.0496L372.38 53.2944C373.018 49.9435 374.561 47.4702 377.007 45.8746C379.454 44.2789 382.379 43.4811 385.783 43.4811C389.4 43.4811 392.565 44.4119 395.278 46.2735C398.043 48.0819 399.772 50.5286 400.463 53.6135L397.033 53.9326C398.469 50.369 400.517 47.7362 403.176 46.0341C405.835 44.3321 408.947 43.4811 412.511 43.4811C415.649 43.4811 418.415 44.1725 420.808 45.5554C423.255 46.9383 425.17 48.8797 426.552 51.3796C427.935 53.8263 428.627 56.6985 428.627 59.9962V88H416.659V62.5492C416.659 60.8472 416.34 59.3845 415.702 58.1611C415.117 56.9378 414.266 55.9804 413.149 55.289C412.032 54.5975 410.676 54.2518 409.08 54.2518C407.538 54.2518 406.181 54.5975 405.011 55.289C403.894 55.9804 403.016 56.9378 402.378 58.1611C401.793 59.3845 401.501 60.8472 401.501 62.5492V88H389.533V62.5492C389.533 60.8472 389.214 59.3845 388.576 58.1611C387.991 56.9378 387.14 55.9804 386.023 55.289C384.906 54.5975 383.549 54.2518 381.954 54.2518C380.411 54.2518 379.055 54.5975 377.885 55.289C376.768 55.9804 375.89 56.9378 375.252 58.1611C374.667 59.3845 374.374 60.8472 374.374 62.5492V88H362.407ZM457.485 88.9574C452.858 88.9574 448.842 87.9468 445.438 85.9256C442.034 83.8513 439.401 81.0855 437.539 77.6282C435.678 74.1709 434.747 70.3414 434.747 66.1394C434.747 61.778 435.704 57.8952 437.619 54.4911C439.587 51.087 442.22 48.401 445.518 46.433C448.815 44.4651 452.539 43.4811 456.687 43.4811C460.145 43.4811 463.203 44.0395 465.862 45.1565C468.522 46.2203 470.756 47.7362 472.564 49.7041C474.426 51.6721 475.835 53.9592 476.793 56.5655C477.75 59.1185 478.229 61.9109 478.229 64.9427C478.229 65.7937 478.176 66.6447 478.069 67.4958C478.016 68.2936 477.883 68.985 477.67 69.5701H445.039V60.794H470.889L465.224 64.9427C465.756 62.6556 465.729 60.6344 465.144 58.8792C464.559 57.0708 463.522 55.6613 462.033 54.6507C460.597 53.5869 458.815 53.055 456.687 53.055C454.613 53.055 452.831 53.5603 451.342 54.5709C449.853 55.5815 448.736 57.0708 447.991 59.0388C447.246 61.0067 446.954 63.4002 447.113 66.2192C446.901 68.6659 447.193 70.8201 447.991 72.6817C448.789 74.5433 450.012 76.0059 451.661 77.0697C453.31 78.0803 455.304 78.5856 457.645 78.5856C459.772 78.5856 461.581 78.1601 463.07 77.3091C464.613 76.4581 465.809 75.2879 466.66 73.7986L476.234 78.3463C475.383 80.4738 474.027 82.3354 472.165 83.9311C470.357 85.5267 468.203 86.7767 465.703 87.6809C463.203 88.5319 460.464 88.9574 457.485 88.9574ZM485.276 88V44.4385H496.446V53.055L495.807 51.1402C496.818 48.534 498.44 46.6192 500.674 45.3959C502.961 44.1193 505.621 43.4811 508.652 43.4811C511.95 43.4811 514.822 44.1725 517.269 45.5554C519.769 46.9383 521.71 48.8797 523.093 51.3796C524.476 53.8263 525.167 56.6985 525.167 59.9962V88H513.2V62.5492C513.2 60.8472 512.854 59.3845 512.163 58.1611C511.525 56.9378 510.594 55.9804 509.37 55.289C508.2 54.5975 506.817 54.2518 505.222 54.2518C503.679 54.2518 502.296 54.5975 501.073 55.289C499.85 55.9804 498.892 56.9378 498.201 58.1611C497.563 59.3845 497.243 60.8472 497.243 62.5492V88H485.276ZM554.02 88.4787C548.754 88.4787 544.658 87.0692 541.733 84.2502C538.861 81.378 537.425 77.3889 537.425 72.2827V54.8103H530.085V44.4385H530.484C532.718 44.4385 534.42 43.88 535.59 42.763C536.813 41.6461 537.425 39.9706 537.425 37.7367V34.5454H549.392V44.4385H559.604V54.8103H549.392V71.4849C549.392 72.9742 549.658 74.2241 550.19 75.2347C550.722 76.1921 551.546 76.9102 552.663 77.3889C553.78 77.8676 555.163 78.1069 556.812 78.1069C557.184 78.1069 557.61 78.0803 558.089 78.0271C558.567 77.9739 559.073 77.9207 559.604 77.8676V88C558.807 88.1064 557.902 88.2128 556.892 88.3191C555.881 88.4255 554.924 88.4787 554.02 88.4787ZM580.101 88.9574C576.962 88.9574 574.25 88.4521 571.963 87.4415C569.676 86.4309 567.92 84.9948 566.697 83.1332C565.474 81.2184 564.862 78.9579 564.862 76.3517C564.862 73.905 565.42 71.7509 566.537 69.8892C567.654 67.9745 569.356 66.3788 571.644 65.1023C573.984 63.8257 576.883 62.9215 580.34 62.3896L593.664 60.2355V69.0116L582.494 71.0062C580.792 71.3253 579.489 71.8838 578.585 72.6817C577.68 73.4263 577.228 74.5167 577.228 75.9528C577.228 77.2825 577.734 78.3197 578.744 79.0643C579.755 79.8089 581.005 80.1813 582.494 80.1813C584.462 80.1813 586.191 79.7558 587.68 78.9047C589.169 78.0537 590.313 76.9102 591.111 75.4741C591.962 73.9848 592.387 72.3625 592.387 70.6073V59.2781C592.387 57.6293 591.722 56.2463 590.393 55.1294C589.116 54.0124 587.361 53.4539 585.127 53.4539C582.999 53.4539 581.111 54.039 579.462 55.2092C577.867 56.3793 576.696 57.9218 575.952 59.8366L566.378 55.289C567.229 52.8423 568.585 50.7413 570.447 48.9861C572.308 47.2309 574.542 45.8746 577.149 44.9172C579.755 43.9598 582.6 43.4811 585.685 43.4811C589.355 43.4811 592.6 44.1459 595.419 45.4756C598.238 46.8054 600.419 48.667 601.961 51.0605C603.557 53.4008 604.355 56.14 604.355 59.2781V88H593.185V80.9791L595.898 80.5004C594.621 82.4152 593.212 84.0108 591.669 85.2874C590.127 86.5107 588.398 87.4149 586.483 88C584.568 88.6383 582.441 88.9574 580.101 88.9574ZM613.131 88V27.6042H625.099V88H613.131Z" fill="#E8F0FF"/>
<path d="M644.682 88L664.787 28.5616H681.222L701.328 88H687.844L683.855 75.873H662.074L658.085 88H644.682ZM665.505 65.1023H680.425L671.329 37.0186H674.68L665.505 65.1023ZM707.505 88V28.5616H719.871V88H707.505Z" fill="#E8F0FF"/>
</svg>
